<svg version="1.2" xmlns="http://www.w3.org/2000/svg" viewBox="0 0 1000 577" width="1000" height="577"><style></style><path fill-rule="evenodd" d="m931.5 463.2c7 0.1 12.6-1.5 18.4-2.4q0.2 0.3 0.4 0.5c-0.3 0.9-0.1 0.5-0.4 1-0.8 3.3-3.3 6.1-4.9 8.7-3 4.9-4.7 10-7.7 14.9-1.6 2.6-3.9 5.5-5.3 8.2-1.8 3.4-2.3 6.6-3.8 10.1-4.2 9.6-8.9 20.1-13.1 29.9-2.4 5.7-4.4 11.5-6.7 16.9-1.1 2.6-0.9 6.4-3.9 7.2-1-0.9-2-1.3-2.9-2.4-4.3-5.9-2.4-15.7-4.3-24.1-1.7-7.6-1.2-17.3-2.9-25.1q0-2.4 0-4.8c-1.3-5.5-1.7-12.1-3.4-17.8-1.1-3.8-3-7.2-3.3-11.6q0.4 0 0.9 0c5.3-3.5 19.4-3.9 21.7-10.1 3-4.4 2.7-11.5 4.4-16.9 3.4-11.2 6.2-22.4 9.1-34.7 0.9-3.8 1.5-20.2 0-22.2-0.5-0.4-0.8-0.3-1.9-0.5-2.6 2-6.3 2.2-9.2 3.9-4.6 2.8-9.6 6.2-14.4 8.7q0-1 0-2c2.2-3 2.4-8.2 3.8-12 2-5.3 4.5-11 6.3-16.4q1.2-5.8 2.4-11.6c6.4-21 8-46.6 13.5-68.9q0.7-7.9 1.4-15.9c2.5-11 4.7-30 3.4-41.9q-0.7 0-1.4 0c-5 8.2-13.1 11.8-21.2 16.8-2.6 1.6-4.7 3.8-8.2 4.4-0.2-6.5 0.8-14.8 2.4-21.7q0.2-6 0.5-12.1c1.8-8.6 0.9-20.6 0.9-30.3q0-10.4 0-20.8c-1-4.7-0.8-11.5-1.9-16.4q0-6.2 0-12.5c-1.3-5.6-1.1-13.4-2.4-19.3q0-2.9 0-5.8c-1.1-4.7-0.9-11.1-1.9-15.9q0-4.1 0-8.2c-1.4-6.3-1.5-14.7-1.5-21.7q0.7-0.2 1.5-0.4c1.5-1.1 3.7-0.1 5.7-1q2-1.9 3.9-3.9c2.9-1 14.2 0.4 16.9 1q3.8 0 7.7 0c7.3 1.6 16.1 1.2 24.1 2.9 8.1 1.8 18.3-1 25.5 1.4 0.8 5.7 4 16.3 2.5 22.7-3.6 14.5-5 31.7-8.7 45.8-3 11.2-3.2 22.1-6.3 33.3-2 7.2-4.6 15.9-5.3 23.6 1.1 0.4 2.6 0.5 4.3 0.5 3.7-3.3 13.8-6.5 18.9-8.7 1.9-0.9 4.8-3.6 6.7-2.9 0.4 0.5 0.3 0.4 0.5 1.4-2.4 3.3-2.4 8-3.9 12.1-3.4 9.3-6 19.2-9.6 28.9-6.4 17.2-11 36.6-16.9 54.5-2 6.1-2.3 11.7-4.3 17.8-2.3 7.1-3.6 14.4-5.8 22.2-1.8 6.1-3.8 11.8-3.9 19.8 1.1 0.5 1.1 0.7 2.9 0.9 2.9-2.2 20.9-9.2 25.1-9.6q0.2 0.2 0.5 0.5c-0.9 4.3-2.9 8.6-4.4 12.5-3.4 9.1-6.1 18.6-9.1 27.5-3.8 11.1-5.2 22.3-9.7 32.7-1.4 3.5-4.3 6.6-5.8 10.2q-1.4 6.2-2.8 12.5c-2.8 6.8-5.2 14.1-8.2 21.2-2 4.7-4.7 8.8-4.9 15.4zm-905.5-128.7c2.9 0.4 5 2.1 7.3 2.9 3.8 1.5 7.9 1 11.1 2.9 1.7 1.1 5.4 4 7.2 3.4 1.8-0.6 1.9-1 1.9-3.4-2.7-4.1-2.8-12.9-4.3-18.3-3.2-11-5.1-22.5-8.7-33.7-2.4-7.4-3.3-15.7-5.8-23.7-4.1-13.3-8.2-27.5-12.5-40.5q-1.5-6.9-2.9-13.9c-2.6-7.8-7.1-15.6-9.2-24.1 0.9-0.3 1.9-0.5 3.4-0.5 2.8 2.5 19.9 12.2 24.1 12.5 0.5-1.3 0.5-3.3 0.5-5.3-1.3-2.1-0.3-4.8-1-7.7-1.7-7.1-1.9-15-3.8-22.2q-4.9-21.9-9.7-43.8c-1.3-5.7-0.7-14.1-1.4-19.8-0.1-1 0.5-2.7 0.5-4.3q0.2-10.6 0.4-21.2c1.7-0.9 3.9-1.1 6.8-1 3.5-2.2 17.3-0.3 22.7-1.5 5.1-1.1 12.2-0.3 17.3-1.4q4.8 0 9.7 0c6-1.3 12.4-1.7 18.3-1.5 0.3 0.9 0.4 1.6 0.5 2.9-0.9 1.4-0.1 3.8-0.5 5.8-1.7 7.5-0.5 16.8-2.4 24.6-1 3.9-2 9-2.9 13-0.8 3.3 0.1 8-0.5 10.6q0 13 0 26.1c-1.6 7.6 1.3 17.8-0.5 26-1.5 6.9 0 16.2 1.5 22.6q0.4 6.3 0.9 12.6c2.5 11.1 3.3 25.6 3.9 37.6q-0.3 0-0.5 0c-1.8-2.2-5.2-2.8-7.7-4.4-4.8-2.9-10-8.9-16.4-9.6-1.6 3.1-1 9.8-1 14.5 1.8 3 0.1 9.2 1 13 1.9 8.6 1.4 18.7 3.4 27.5q0.2 5 0.4 10.1c3.6 14.9 4.9 31.3 8.7 45.8 1.2 4.3 0.7 8.1 2 12.5 2 7 4.7 14.7 7.2 21.2 1.2 3.1 1.1 6 2.4 9.2 1.8 4.4 4 9.7 4.8 14.9q-0.2 0.3-0.5 0.5c-0.8-0.3-0.4-0.1-0.9-0.5-2.3-0.6-2.8-1.9-4.4-2.9-3.1-2-6.6-2.7-10.1-4.3-3.1-1.4-5.8-4.2-9.6-4.8q-0.3 0.2-0.5 0.4c-0.9 6.6 0.6 12.8 1.9 18.4 1.6 6.7 0.1 12.6 1.9 18.8 1.4 4.7 3.8 10.1 5.3 14.9q0.8 6.3 1.5 12.5c0.9 3.6 2.5 7.4 3.4 11.1 2.8 1.7 6 4 9.1 5.3 3.7 1.6 8.4 1.4 11.1 3.9 0.7 0.6 0.4 1.7 0.5 2.9-3.7 3.3-2.9 14.6-4.3 20.7-1.7 6.9-1.4 15.7-2.9 22.7q0 3.3 0 6.7c-2.6 11.3-3.3 23.6-4.4 37.1-0.8 0.5-0.8 0.6-1.9 1q0-0.3 0-0.5c-1-1.2-0.2-2.2-1-3.9q-0.9-0.7-1.9-1.4c-1.8-2.8-2-6-3.4-9.2-4.7-10.9-9.6-22.9-14.4-34.2-2.6-6.1-3.5-12.4-6.8-17.8-4.6-7.5-8.3-15.9-13-23.6-2.3-3.9-6.2-8.2-6.8-13.5 0.8-0.3 1.2-0.4 2.5-0.5 1.7 1.6 13.2 3.6 15.4 3.4 0.4-1.1 0.5-2.7 0.5-4.4-1.7-1.9-1.8-4.6-2.9-7.2-3.2-7.4-5.7-15.2-8.7-23.1-3.1-8.2-7.1-16.8-10.1-25.1-4.8-13.3-6.7-26.6-11.1-40-2.2-6.5-3.3-13.8-5.8-20.8-1.5-4.2-3.7-6.9-3.9-13z"/><path  d="m222.4 186.5l0.8 0.7q-0.8 12.5-1.8 23.8-0.8 10.9-2.8 21.1-3.5 14.2-7.6 24.1-4.1 10-9.4 14.9-3.1 3.6-5.4 5.3-2.2 1.7-3.8 2.3-2.8 1-7.6 2.7-4.6 1.3-10.4 2.9-0.3-0.3-8.9-1-8.7-1-25.4-2.6-5.6-4.3-9.7-7.3-3.8-2.9-5.8-4.9-4.4-4-7.2-8.3-2.5-4.3-4-9.2-0.3-1.4-0.8-3.7-0.3-2.3-0.8-4.9-1-5-2-9.6-1-4.6-1.5-8.6-1.5-50.9-2.1-75.7-0.5-24.7-1.2-24.4 0-5 4-6.3 1.6-1.6 1.6-3.6 0-2.3-3.8-1.7-0.3-12.9 0.2-22.1 0.8-9.3 1.8-15.9 3-21.1 12.4-32.7 1.3-1.3 3.4-3.3 2.2-2.3 5.8-5.3 2.3-1.6 4.3-3.6 2.1-2 4.3-3.6 2.3-2 4.6-3 2.3-1.3 4.6-1.3 1.5 0 2.8 0.3 1.3 0.3 2.8 1.3 2.3-1.6 5.1-2.3 2.8-1 6.1-1 3.8 0 11.9 2 3.8 0.3 6.6 0.7 3.1 0.3 5.1 0.6v1.3q0-0.3 0.8 0.7 0.7 0.7 2.3 3 3.5 0 6.6 2.9 3 2.7 5.6 8.3 3.5 6.6 5.8 10.2 2.6 3.7 3.8 5 4.4 17.8 6.6 31.1 2.3 12.8 2.3 21.4 0 5.7-0.7 10.9-0.8 5.3-2.1 9.9-2 0-5.3 0.4-3.1 0-7.4 1-4 0.6-7.4 1.3-3 0.3-5.3 0-6.9 0.3-11.4-2.7-4.6-2.9-6.4-8.5 1.5-3 1.5-6.6 0-1-0.2-2.7-0.3-2-0.5-3.6-0.3-2-0.5-4-0.3-2-0.3-3 0-3.6 1.5-6.2-0.2-1-0.7-2.4-0.3-1.6-0.8-3.3-0.5-1.6-1-2.9-0.3-1.7-0.3-3 0-2.3 1.3-4.3-1.5 0-3.8-1-2-1.3-5.1-3.3-2.5-2-4.8-3-2-1.3-3.8-2-4.1 8-6.1 14.6-2.1 6.3-2.3 11.9 0 1.6 0 3 0.2 1.3 0.5 2.6-1.3 3.6-1.5 7.9 0 1.3 0.2 3.7 0.3 2.3 0.5 4.9 0.3 2.3 0.5 5 0.3 2.3 0.3 3.6 0 4.6-1.5 7.9 1.5 1 1.5 2.3 0 0.7-0.8 2.4-0.7 1.3-0.5 2.6-0.2 3 0 7.3 0.3 4.3 0.5 10.5 0.3 6 0.3 10.6 0.2 4.6 0.2 7.6l0.3 18.2q0 3.6-0.5 10.2-0.3 6.3-1 15.6 2.5 2.6 5.6 6.9 3.3 4 7.8 8.9 0.8-2 2.6-3.6 2-2 5.3-3.3 6.6-3 6.6-6.6 0-1.3-0.5-3-0.5-2-1.8-4.3 2.3-5.3 2.3-13.2 0-1.3-0.2-3.6 0-2.4-0.3-4.7-0.2-2.6-0.5-4.9 0-2.3 0-4 0-10.6 5.1-16.8l35.3-0.4q5.4 6 5.6 18.5zm-15.5-109v-2.6h-2v2.6zm-7.6-8.9l-5.4-3.3 4.1 5.3zm-22.9-27.8l-6.6-5.3 5.3 7zm15 24.4q-0.7-2-2-2-1.5 0-2 2l1.2 1.7h0.5q0.3 0 2.3-1.7zm7.9 20.8l-1.3-1.6-1.2 1.6 1.2 2zm-59.7-35v-2.7h-2v2.7zm11.4 14.9v-0.7h-1.5q-1-0.3-1.8 0.3-0.5 0.4-0.8 1.3 1.6 2 2.1 2l0.5-0.3q1.5-2 1.5-2.6zm-12.2 0.9h-1.3v1.7zm-8.6 1.6v-2.6h-2v2.6zm14.2 16.6l-0.3-0.7h-4l2.8 3.6q1.5-2.6 1.5-2.9zm-18.3 1v-2.7h-2v2.7zm20.8 38.6v-1.6h-1.5zm55.9 73.3v-2.6h-2v2.6zm-6.1-7.9v-0.7h-0.8q-0.2 0-0.8 0.7-0.2 0.3-1.2 1l1.2 2q1.6-2.4 1.6-3zm11.4 27.4v-2.6h-2v2.6zm-80.1-101.8v-1.6q-0.8-1.7-1.8-1.7-1.8 0-3.8 3.3zm0.5 15.9v-2.6h-2v2.6zm70.7 94.5l1.5-1.7q-0.8-1.9-2.8-1.9l-1.3 0.3zm-69.1-80.6v-2.3h-2.1v2.3zm70.7 96.5v-1.7h-1.5zm-61.3-77v-2.6h-2v2.6zm46.2 71.7q-0.7-2-2.8-2-4 0-3.8 0.4 0.8 0.3 2.1 1.9 1.2 1.4 2.5 1.4 1.3 0 2-1.7zm-46.2-45.6v-2.6h-2.1v2.6zm18.9 44v-2.7h-2.1v2.7zm10.2 19.1v-1.6q-1-2-2.8-2h-1.3l-0.2 1q0 2.6 3.3 2.6zm-32.6-35l0.3-0.7q0-0.6-1.5-2.9l-1.3 3.6zm12.2 22.8v-1.7h-1.3zm8.9 19.2v-2.6h-2v2.6zm-45.3-55.8v-2h-2.8zm16.8 33v-2.6h-2v2.6zm213.8 31.7q0 5.3-1.8 9.6-3 3.7-7.4 4-1-0.3-2.8-0.7-1.7-0.3-3.8-0.6-1.8-0.4-3.5-0.7-1.8-0.3-2.8-0.3-3.3 0-6.1 2l-1.6-1.7q-1.2 1.7-3 1.7-0.8 0-2-0.4-1.1-0.6-2.1-1.3-1-0.6-2-1.3-1-0.7-1.8-1-7.1-9.3-7.6-42.6 0.2-2.3 0.2-6 0-3.9 0.3-8.6 0.2-5.2 0.2-8.2 0-3.3-0.2-5 0.2-12.9-3.8-21.5-4.1-8.9-13-12.8-2.3 1.6-4.6 1.6-1.2 0-3.8-0.3-2.3-0.7-3.5-0.7-2.3 0-3.3 1 5.6 2.7 5.8 9.3 0 1.3-0.5 3.3-0.3 1.6-0.8 3.6-0.2 2-0.5 4.3-0.2 2-0.2 3.3 0 4.6 1.8 7.3-2.8 2.3-2.8 5.3 0 1 0.5 2.6 0.5 1.3 1 3 0.7 1.6 1.3 3.3 0.5 1.3 0.5 2.3 0 2.6-1.8 4.9 0.5 5.3 1 11 0.5 5.6 0.5 11.8l-0.2 24.5q-3.4 8.3-11.2 7.9-1.6 0-3.8-0.3-2.1-0.7-4.6-1-2.3-0.7-4.6-1-2-0.6-3.1-0.6-0.7 0-2.2 0.6-1.3 0.3-2.6 1-1.3 0.3-2.5 1-1.3 0.3-2.1 0-2.2 0.3-4.3-1-1.8-1.6-3.3-4-1.5-2.3-2.3-5.2-0.7-3.4-1-6.7 0-4.2 1.5-8.9l-3.3-2.6 4.6-149.7q-1.5-1-1.5-4 0-5.6 0.2-4.9l0.8-0.3q0.3 0 1.8 1.9 3-4.6 3-4.3 0-2.9-1.7-2.9-0.8 0-2.1 1-1.3 0.6-2.5 0.3l-0.3-63.1q2.6-4.6 7.6-7 5.4-2.6 12.5-2.6 2.3 0 5.6 0.3 3.6 0.4 7.9 1.4 4.3 0.6 7.6 0.9 3.6 0 5.9 0 1.5 0 4.3 0 2.8-0.3 6.6-0.6 3.5-0.7 6.3-1 2.8-0.3 4.6 0 14.8 0 24.2 4.3 9.6 4.3 15.2 15.2 2.6 5.3 5.1 18.2 2.8 12.5 4.8 32.7 0.3 2.3 0.3 4.6 0.2 2.3 0 4.3 0.7 12.9-5.9 34.7-1.2 3.6-5.8 8.9-5.1 5.3-4.8 9.9-0.3 1.7 1.2 5.6 1.8 3.7 4.9 9.9 3.3 6 5 11.3 1.8 4.9 1.8 9.2 0 4-1 7 1.3 2.3 1.8 5.6 0.8 3.3 1.3 6.9 0.2 5.6 0 14.6-0.3 6.9-0.3 10.2 0 3.3 0 3.6 0 3 0.5 7.3 0.5 4 1.8 9.3 1 5.2 1.5 9.5 0.8 4 0.8 6.6zm-32.6-209.8v-3.6h-1.2zm10.6 16.2v-2.6h-2.2v2.6zm-30-21.8v-1.7h-1.6zm-10.6 2v-2.6h-2.1v2.6zm30 41.7l0.3-0.4q0-0.6-0.5-1.6-0.5-1-1-1.7-0.6-0.6-1.1-1-0.5-0.6-0.5-0.6l-1.2 1.6q0.2 0 0.5 0.7 0.2 0.6 0.7 1.6 0.5 0.7 1 1.4 0.8 0.3 1.3 0.3zm-43.2-52.6q-1.5-1.9-4.1-1.9-2.8 0-4.3 1.9l1.5 1.7q-0.7 0.3 0.3 0.3 1 0 3.5 0 2.3 0 3.1-2zm39.1 67.1l-1.5-1.6-1.2 1.6 1.2 2zm-4.3 7.3l-2.8-3.7h-0.5q-0.3 0-0.8 0.7-0.5 0.3-1.5 1 0.3-6.3 0-14.9 0-8.6-1-19.1-0.5-4-2-7.3-1.6-3.3-3.6-5.6-2-2.3-4.8-3.7-2.6-1.6-5.4-1.3-9.6 0-13.7 10.3 0.5 3.3 0.8 7.9 0.5 4.6 0.7 10.9-0.2 9.2-0.2 14.9 0.2 5.2 0.2 6.6 1.8 13.8 8.7 14.5 1.2 0 3-0.7 2.1-0.9 4.1-1.6 2-1 3.8-1.7 2-0.6 3.1-0.6 3 0 5 2.6l1.6-2-4.4-3.6q-0.2-0.7-0.2-1 0-0.3 0-0.3 0-1.7 3-6l4.1 5.7h0.8q0.5 0 2-2zm8.4 21.8q-1.3-2-3.6-2-3.8 0-4.8 3.6 1 2 2.5 2 0.6 0 1.3-0.3 0.8-0.7 1.5-1.3 1.1-0.7 1.8-1.4 0.8-0.6 1.3-0.6zm-46.8-52.6v-2.6h-2v2.6zm-13.2-12.8h-1.3v1.9zm58.7 83.6l-1.5-1.9-1.3 1.9 1.3 1.7zm-8.4-12.9q-0.5-1-1.3-1.3-0.5-0.4-1.2-0.4-4.1 0-4.4 5.3 0.5 0.4 1.1 0.4 0.2 0 0.2 0 0.8 0 1.5-0.4 0.8-0.6 1.6-1.3 1-1 1.5-1.6 0.7-0.7 1-0.7zm-46-48.9v-0.7q0-0.3-1.5-2.9l-2.8 3.6 1.5 2h0.5q0.5 0 2.3-2zm-12-12.6v-2.6h-2v2.6zm49.6 56.2q-0.5-2-2.3-2h-3.3q-1.3 0.7-4.1 1.7-2.8 0.6-7.1 2l1.5 1.9q1-0.9 3.1-0.9 1 0 3.3 0.6 2.5 0.3 3.5 0.3 3.6 0 5.4-3.6zm-32.1-36.3q-1.2-1.7-3-1.7-4.1 0-5.3 5.3 0.5-1 1.5-1.3 1.3-0.3 2.5-0.3 1.5-0.4 2.6-0.7 1.2-0.3 1.7-1.3zm50.4 69.7l-0.3-0.7-0.2-0.3q-0.8 0-2.6 2l1.6 2q1.5-2.7 1.5-3zm-12-6.3v-2.6h-2v2.6zm3.3 9.3v-2q-1.5-2-2.3-2l-0.5 0.3zm-30.5-39.3q0-2.6-2.8-2.6l-1.5 0.3v1q0 4.3 2.3 4.3h0.5q1.5-2.3 1.5-3zm-7.1-5.9v-2q0.2-2.7-1.3-3.7-1.5 1-1.5 3.7 0 2.6 1.5 3.6zm15.5 27.1l1.3-2q-0.5-1.6-2.3-1.6h-0.8-1zm-29.5-40q-0.5-2-2-2-1.8 0-2 2l1.2 2h0.5q0.3 0 2.3-2zm35.1 45.3h-1.8-1q-6.1 0-8.4 3.6l2.8 3.6q1.6-0.6 3.6-2.6 2-2 4.8-4.6zm15.3 29q-0.3-2-2.1-2-1.7 0-2 2l1.3 2h0.5q0.2 0 2.3-2zm-34.9-43.6l-1.5-1.6-1.3 1.6 1.3 2zm8.4 3.6v-0.6q0-0.4-1.5-3.3-2.8 4.6-6.6 7.2-3.6 2.7-8.7 4 0.5 0.3 1 0.7 0.8 0 1.6 0 1.2 0 3-0.7 1.8-1 4.1-2.3 5.6-4.6 7.1-5zm-15.5-10.9h-1.5q-2.3 0-2.6 2l1.3 1.7zm-11.2-3.7v-1.6h-2.8zm-12.4-7q-0.8-1.9-2.1-1.9-1.5 0-2.3 1.9l1.6 1.7h0.5q0 0 2.3-1.7zm5.6 16.2l1.2-2q-0.5-1.6-2.3-1.6h-0.7-1zm8.3 16.2h-1.5v2zm-5.6-7.3q-1.2-2-3.5-2-2.3 0-3.6 2l1.5 2h3.3q1.8 0 2.3-2zm21.6 32.7v-2.6h-2v2.6zm-4.8-3.6h-4.3q-1.3 1-1.3 2.6 0 2 1.3 3zm-11.2-7.3l1.2-1.6q-0.5-1-1.5-1.4-0.7-0.6-2-0.9-1-0.4-2.1-0.7-1-0.3-1.2-0.7zm5.6 19.2v-1l-4.4 3.6 1.6 2q0-0.6 1.8-2.3 1-1.3 1-2.3zm-12.7-8.3q-1.3-1.9-4.1-1.9-2.8 0-4.3 1.9l1.5 2h4.1q2 0 2.8-2zm19.5 40q-1.2-2-4-2-3.3 0-2.8 3.3v0.7q0.7 1.7 2 1.7 0.3 0 1-0.4 0.8-0.6 1.3-1.3 0.8-0.7 1.3-1.3 0.7-0.7 1.2-0.7zm-18.8-18.2v-2.6h-2v2.6zm-7.6-8.9v-2h-1.6zm0.8 25.5v-3h-2.3v3zm4.8 10.6v-1.7h-1.5zm1.3 10.9v-1.6h-1.3zm145.2 16.5h-0.3q0.5 17.2-16 16.8-2.3 0-5.8-0.3-3.6-0.7-8.4-1.7-9.9-2.3-15-1.6-1.3-1.3-2.1-2.7-0.5-1.6-0.5-3.6 0-1 0.3-2.3 0.2-1.3 0.5-2.6 0.2-1.4 0.5-2.7 0.3-1.6 0.3-2.3 0-2.6-1.8-5 1.8-28.7 2.8-43.2 1-14.6 2.5-11.9-1.3-2-2-13.6-0.5-11.5-1-33-0.5-21.5-1.1-52.9-0.5-31.7-1-74 2.6-6.9 7.9-10.6-1-0.3 4.1-0.3 4.8 0 16 0 5.3 0.3 9.4 1.3 4.3 1 7.9 2.3 1.2 3.3 2 6.6 0.8 3.4 1 7.6-0.2 2.7-0.7 6.3-0.3 3.3-1.1 8.3-1.2 9.6-1.2 14.5 0 3.7 0.2 8.9 0.3 5 0.8 11.6 0.5 6.9 0.2 12.2 0 5.3 0.3 8.6 0 3.3-0.3 8.3 0 4.9-0.5 11.9-0.2 6.9-0.7 11.9-0.3 4.6-1.3 7.6 0.8 33.3 1.5 57.1 0.8 23.5 0.8 40.7 0 2 0.2 4.9 0.3 3 0.6 6.3 0.2 3 0.5 6 0.5 2.6 0.5 4.6zm-18.1-155.6q-0.2-1-1.5-1-2 0-5.1 2.6l1.3 2q0.2 0.3 0.5 0.3 0.2 0 0.5 0 1.3 0 4.3-3.9zm-8.1 25.4v-0.3q-1.3 0.3-3.1 1.3-1.5 0.6-3.8 2.3 0.5 2 3.1 1.7h1q0 0 0.2-0.4 0.6-0.6 1.6-1.6 1-1.4 1-3zm-11.2 15.9v-2h-2.8zm18.3 26.7v-1.6h-1.8zm3.8 27.1q-2.5-3.7-3.8-3.7-0.7 0-1.7 2l2.7 3.3 0.6 0.4q0.5 0 2.2-2zm-22.6-25.1v-2.7h-2.3v2.7zm26.2 53.8v-2.6h-2v2.6zm164.5-200.5l0.2 0.3q-0.2 4-0.7 10.9-0.3 6.6-1.1 15.9-0.7 8.9-1.2 15.5-0.5 6.6-0.3 11.2 0 5.6 0.3 10.6 0.5 4.6 1 9.2-2.3 1.7-2.3 4 0 1.7 0.8 3 0.7 1.3 3.5 2.6l-0.5 136.8q-0.5 1.3-0.8 2.7-0.2 1-0.5 2.6-0.2 1.7 0 5 0.3 1.9 0.3 3.3 0 1.3 0.2 1.9 0 10-7.1 11.9-0.5 0.4-3.8 0.7-3 0.3-8.4 0-1.5 0-2.8 0.3-1 0-2 0.4-2-1.7-8.9-1.7-4.1 0-6.6-5.6 0.7-4.6 1.3-9.6 0.5-5.3 0.5-10.2-0.3-3.3-0.5-8.3 0-4.9-0.8-11.2-0.3-6.6-0.5-11.3-0.3-4.9 0-8.2-0.3-5.6 0-10.6 0.5-4.9 1.5-9.9h0.8q0.2 0 0.5 0.7 0.5 0.3 1.5 0.9l2.8-3.6q-0.2-2.6-2-4-1.8-1.6-5.1-1.3l5.6-7.2h-0.8q-4.3 0.3-4.8-7.3-0.3-7.9-4.6-7.3h-0.8q-1.2 1-2.7 3.7-1.3 2.3-2.8 4.9-1.6 2.3-3.1 4.6-1.5 2.3-2.5 3.3 1.5 1.7 2 1.7h0.8l1.2-1.7q-0.5 2.7-1 5.3-0.5 2.3-1 5-0.8 3.3-1.5 5.6-0.8 2-2.1 4 0.8 2.3 1.1 4.9 0 1.7-0.6 4.3-0.2 2.7-0.7 5.6-0.5 2.7-1 5.3-0.3 2.3-0.3 4 0 1.3 0.3 3.6 0.2 2.3 0.2 3.7 0 4.2-1.3 8.2-1 4-3.3 7.3 0.8 2 1.1 5.9-0.3 5-1.3 9.3-0.8 3.9-3.1 8.2-4.3 9.3-11.4 9.3-1 0-2-1-1.1-1-2.1-2-1-1-1.7-2-0.8-1-1.6-1-0.2 0-0.5 0-0.2 0-0.5 0.7-2-10.2-3.8-20.1-1.5-10.3-2.8-20.9-1.8-12.2-2.8-22.1-1-10.2-2-18.5h0.5q-0.3 0 3.5-3.6-1.7-1.7-2.8-2.7-1-1-0.7-1h-0.5l-1.6 2.3q0-8.2-2.8-14.8-2.7-7-8.1-12.6 0.5-0.3-6.9-0.3-4.3 0-4.3 4.6 0-0.3 0.5 1 0.8 1 2.3 3.6h6.9q-1.8 10.9-1.3 14.6h-0.7q-0.6 0-2.1-2-2.8 4.9-2.8 4.6v1l2.8 3.3 0.8-1.3 0.5 39.3q1.5 4 1.5 10.9v5.3h-0.7q0.2 0-0.6 1-0.7 0.7-3 2.6 4.6 1.7 4.6 9.3 0 0.6-0.3 2.3 0 1.7-0.2 5-0.3 2.3-0.3 3.9 0.3 1.7 0.5 3l-4.3 5.6q-1.3-0.3-2.5-0.3-1.1-0.4-2.3-0.4-1.6 0-4.1 0.7-2.5 0.3-5.3 1-2.6 0.3-5.1 0.7-2.3 0-4.1 0-6.1 0-9.1-2.4-3.1-2.6-3.1-7.2 0-1.7 0.5-4.3 0.5-2.7 0.5-4 0-3-1.5-5.6 1.5-0.7 1.5-2 0-1-0.7-2.6-0.8-1.7-1.6-2.3l2.3-56.2 0.8-3q0-23.1-0.5-37.6-0.3-14.9-0.5-22.2 0.2-4.9 0.5-8.2 0.2-3.7 1.8-5.7l-3.6-89.5q1.5-5.6 5.1-8.3 3.8-2.9 9.1-2.9 1.3 0 3.1 0 1.8 0 4.3 0.3h7.6q1.6 0.3 3.8 0.7 2.6 0 5.9 0.6 5.8 1 10.2 0.7 2.5 2.6 4.3 7.3 1.8 4.2 2.5 11.2 1.3 5.3 2.1 10.9 0.7 5.3 1.7 10.2h-0.5q0.5 0-3.5-3.6l-1.3 2q8.4 5.6 9.2 21.1 0.5 9.9 1.5 16.5 1.2 6.3 3 9.3-0.2-0.7-0.2 8.6 0 4 3 5.6h0.8q-0.5 0.3-1.8 0.3-2.8 0-3-1.9-1.6 0.3-1.6 2.6 0 2.3 1.6 2.6 0.5 2 1.7 3.3 1.3 1 3.1 1.7 5.1 1.6 6.1 2.3l4.3-5.3-2.8-3.3q0.3-1.6 1.3-2.6 1.3-1.3 2.5-2.3 1.6-1 2.8-2 1.3-1.3 1.8-2.7-3-2.9-3-6.2 0-1.4 0.5-3 0.7-2 1.2-4 0.5-2.3 1-4.3 0.8-2.3 0.8-3.6 0-1-0.2-2 0-1-0.3-2h1.3q1.8 0.4 3.5-1 2.1-1.3 2.1-3.6 0-0.3-1.6-2.6h-2.8q1.8-6.3 1.6-9 0.2 0.4 0.5 0.4 0.2 0 0.5 0 1 0 4.6-4-1.3-2.6-2.1-5.6-0.7-3.3-0.7-6.6 0-6.6 2.5-15.9 1-3.6 2-7.6 1.3-3.9 2.3-7.6 2.6-3 6.1-4.3 3.6-1.3 8.7-1.3 0.5 0 2.8 0.3 2.3 0 6.6 0.4 2.8 0.3 5.1 0.3 2.3-0.3 3.8-1 3.3 1 6.6 1.7 3.3 0.6 6.3 0.9 6.9 3.3 7.2 12.3zm-4.4 19.5q-1.5-2-3.3-2-0.7 0-2.8 2-1.7 1.9-5 5.6 1-4 4.5-4 5.4 0 6.6-1.6zm-19.5 0q-2.1 0.6-5.6 3.6 2-0.7 5.6-3.6zm-14 0l-6.9 3.6q1.3 2 2.1 2 0.7 0 1.2-1 0.8-1 1.5-1.7 0.8-1 1.3-1.9 0.5-1 0.8-1zm2.8 23.4l0.2-0.3q0-0.7-1.5-3.3-1.5 1-1.5 2.6 0 2 1.5 3zm15.3 21.8v-2q-1.3-1.6-2.3-2.6-1-1-1.6-1-1.2 0-1.5 2 3.1 3.9 4.3 3.9 0.3 0 0.6 0 0.2 0 0.5-0.3zm5 8.9v-2.6h-2.2v2.6zm-13.3-7.6v-1.3l-2.8 3.6 1.3 1.7q1.5-0.3 1.5-3zm8.2 23.8l-2.8-3.6q-1.3 1-1.3 3 0 2.6 2 2.6 0.3 0 2.1-2zm-20.9-25.1l-1.2-2-1.6 2 1.6 1.7zm-11-10q0-2.9-2.8-2.9-2 0-2.8 1.9l4.1 3.7q1.5-2.3 1.5-2.7zm16.5 27.8q-0.7 0.3-1.5-0.3-0.7-1-1.8-2-0.7-1.3-1.5-2-0.7-1-1.3-1-1 0-2.2 1.7 0.7 0 1.5 1 1 0.6 1.8 1.9 1 1 1.7 2 0.8 0.7 1.3 0.7 0.8 0 2-2zm-22.8-23.5v-2.6h-2.1v2.6zm23.2 33.4q0-2.6-2.1-2.6-0.7 0-3.8 3.6 0.8 2 2.6 2h1.7q1.6-2.7 1.6-3zm-9.9-7.3q0-2.6-1.8-2.6-2.6 0-2.6 3.3l0.3 0.3q1.8 2 2 2h0.8q1.3-3 1.3-3zm40.9 57.2v-2.6h-2v2.6zm-25.7-41.6q-1-1.4-2.3-1.4-0.5 0-1.5 1-0.8 0.7-2.1 1.7-1 1-2 2-1 0.6-1.8 0.3l1.3 1.7q0.5-0.7 1.5-1 1.3-0.4 2.6-0.7 1.5-0.7 2.5-1.3 1.3-1 1.8-2.3zm-23.7-32.4q0.5-0.3-1-0.3-1.8 0-5.8 0-4.9 0-6.9 1.9l4.1 3.7q1-1.7 5.6-2 3.8-0.7 4-3.3zm32.1 52.2q-0.8-2-2.1-2-1.7 0-2 2l1.3 2h0.5q0.5 0 2.3-2zm-30.5-38q-3.6-3.6-4.6-3.6-2.6 0-2.6 2.9 0 1.7 1.6 2.7h3q1.8 0 2.6-2zm6.8 21.8l-1.3-1.7-1.5 1.7 1.5 1.7zm18.1 27h-1.3v1.7zm-23.6-30.7q-0.5-0.4-1.3-0.7-0.5-0.7-1.3-1.3-0.5-0.7-1.2-1-0.8-0.7-1-0.7-1.3 0-2.1 2l2.8 3.7h1q2.3 0 3.1-2zm-61-75.7v-2q-3.6 0-4.3-1.6l-1.3 1.6q0.5 2 2.3 2zm73.4 86.6q-0.5-0.4-1-0.4-0.2 0-0.7 0-1.1 0-3.3 0.7-2.1 0.3-3.1 0.3-1.8 0-3.3-1-1.3-0.9-2.3-3.3-0.5 1.7-0.5 1.7 0 1.6 1 2.6 1 1 2.3 2.3 1.3 1 2.3 2.4 1.3 1 1.8 1.9 0.5 0.4 1 0.4 0.2 0 0.5 0 0.8 0 1.3-1 0.7-1 1.2-2.3 0.8-1.4 1.3-2.7 0.8-1.3 1.5-1.6zm4.4 12.5q-0.5-1-1.6-1.3-0.7-0.7-2-0.7-2.5 0-3.6 2l1.6 2h3q1.5 0 2.6-2zm8.9 16.2v-2.6h-2.1v2.6zm9.9 16.5v-2.9h-2.2v2.9zm-44-65l-1.3-2q-1 3.6-3.8 3.6-5.4 0-5.9 3.6l2.8 3.7h0.8q1.3 0.3 2.3-0.7 1-1 2-2.6 2.6-5.3 3.1-5.6zm-55.5-57.9l-1.5-2-1.2 2 1.2 1.7zm89 115.6l-1.5-2-1.3 2 1.3 1.7zm-30.8-40q-4.6 1.6-5.6 7.3l1.5 1.9q1.1-1.3 1.8-3.6 1-2.3 2.3-5.6zm-45.7-52.2h-1.6v1.6zm9.7 14.6l0.2-0.7q0-0.3-1.5-3l-2.8 3.7 1.3 1.6h0.5q0.3 0 0.8-0.3 0.5-0.7 1.5-1.3zm-23.7-29.1v-1.6h-1.2zm100.1 128.2l-1.5-1.7-1.3 1.7 1.3 1.9zm-52.9-66q0-2.7-2.8-2.7-2 0-2.8 2 0.3 0 0.6 0.7 0.5 0.3 1 1.3 0.5 0.6 1 1.3 0.7 0.3 1.3 0.3h0.5q1.2-2.9 1.2-2.9zm-61-73.1v-0.3q0-1-1.5-3.3l-1.3 2q1 1 1.3 1.6 0.5 0.4 0.8 0.4zm27.7 41.6l1.2-1.7q-1.7-1.9-2-1.9h-0.8zm8.4 6.2q0-2.6-1.7-2.6-2.6 0-2.6 3v0.6q2 2 2.3 2l0.5-0.3q1.5-2 1.5-2.7zm45.8 51.6q-1-6.6-4.3-6.6-1.3 0-3.6 0.6-2.3 0.7-3.3 0.7-2.5 0-4.1-2l2.8 7.3-5.3 3.6q3.8 1.3 6.1 2 2.5 0.3 3.6 0.3 6.1-0.3 8.1-5.9zm-73.7-84.9h-2.8l1.5 1.9zm15.8 18.2q0-2.6-1.8-2.6-0.3 0-1.8 0.6-1.3 0.7-3.8 2l4.3 5.3 0.5 0.3q0.5 0 2.3-1.9 0.3-1.4 0.3-2 0-1 0-1.7zm28.7 43.3l-2.8-3.6-2.8 3.6 1.5 1.7h1.3q1.8 0.6 2.8-1.7zm-18.6-18.2v-2.6h-2.3v2.6zm-23.1-30.7l0.3-0.3q0-0.7-1.6-3.3l-2.8 3.6 1.3 2h0.5q0.3 0 2.3-2zm44.8 56.8q0-2.6-2.1-2.6-1.3 0-3.8 3.6 0.8 2 2.5 2h1.8q1.6-2.3 1.6-3zm-57.2-71l-4.1-5.6-1.5 3.6q4.3 3.3 4 3.3 1 0 1.6-1.3zm97.3 126.2l-1.5-1.6-1.3 1.6 1.3 2zm-68.1-84.9v-1.7q0-2-1.8-2-2.6 0-2.6 3.4l0.3 0.3zm16.8 18.2v-1.7q-2.3-5.6-5.4-5.6-2.5 0-6.1 3.6-1.2 1.3-2.5 2.7-1.3 1.3-2.8 2.6l1.3 2h1.2q2.3 0 3.1-2 0.7 0 1.8-0.7 1-0.6 2-0.9 1.3-0.7 2.3-1.4 1-0.6 1.8-0.6 1.7 0 3.3 2zm15.2 23.4q-0.2-2.3-2-2.3-0.8 0-1.8 0.7-1 0.6-2.3 1.6-1.2 0.7-2.3 1.3-1 0.7-1.5 0.7l2.8 3.3q0.3-1 1.3-1.7 1.3-0.6 2.3-1.3 1-0.6 2-1 1-0.6 1.5-1.3zm43 59.5q-0.5 0-1.8-0.3-1-0.7-2-1.4-1-1-2.3-1.3-1-0.7-1.8-0.7-1.8 0-3.3 2 2.5 1.4 4.6 2 2 0.7 3.5 0.7 2.1 0 3.1-1zm-105.5-129.2v-0.7h-0.5q0 0-2.3 1.7l1.3 2q1.5-2.7 1.5-3zm75 100.4v-1.6l-4.3-2zm-43.3-63.1l-1.2-2q-0.8 0.3-1.6 0.7-0.7 0-1.5 0-3 0-7.6-3-4.3-3.3-5.6-3h-0.5q0.8 1 2 2.3 1.3 1 3.6 2.4 3.8 2.6 4.3 6.2h2.6q2 0 3.5-0.6 1.5-1 2-3zm71.7 106.4v-2.7h-2v2.7zm-57.7-79.3q-1.3-4-4.3-4-3.6 0-6.9 4l2.8 3.6q0.8 0.4 1 0.4 0.5 0 0.5 0 0.8 0 1.8-0.7 1-0.7 2-1.3 1.1-0.7 1.8-1 1-0.7 1.3-1zm-34.6-46.3l-0.2-0.6q-3.6 1-5.4 1.3-1.5 0.3-1.5 0.3-2.5 0-4.1-1.6l-1.5 1.6q1.3 3.7 4.8 3.7h4.9q0 0 0.5-0.7 0.5-0.7 1-1.3 0.8-0.7 1-1.3 0.5-0.7 0.5-1.4zm-21.1-11.5v-2l-1.3-1.7zm73.8 84.9q-0.5-0.3-1-0.3-0.6 0-1.3 0-1 0-2.3 0.3-1.3 0.4-2.8 1-2 1.4-3.3 2-1 0.4-1.8 0.7l1.3 1.6 2.3-0.3q3.3 0.3 5.3-1 2.3-1.3 3.6-4zm5.6 12.6q-0.8-2-3.1-2h-3.8q-1.5 1-1.5 3 0 2.6 3 2.6 3.6 0 5.4-3.6zm-37.7-41.6l-5.3-7.3q-3.1 2-3.1 4.3 0 4.6 5.6 4.6 2.1 0 2.8-1.6zm4.4 9.9q0-2.7-1.8-2.7-2.6 0-2.6 3v0.7q1.8 2 2.3 2l0.5-0.4q1.6-2 1.6-2.6zm-16.8-27.8q-1.3-3.9-3.6-3.9-3 0-6.1 5.6l-1.5-1.7q-0.8-0.3-1-0.3 0 0 0 0-1 0-4.3 3.6 0.5 0.4 0.7 0.7 0.3 0 0.3 0 0.7 0 1.8-0.3 1-0.7 2-1 1.3-0.7 2.3-1 1-0.3 1.5-0.3 0.8 0 1 0.3h3.8q2.1 0 3.1-1.7zm29.2 45l-12.4-5.7q2.8 8.6 8.3 9 2.6 0 4.1-3.3zm23.7 38l-1.6-2-1.2 2 1.2 1.6zm-85.4-106.7v-2.6h-2v2.6zm70.1 90.5q-2-4.6-4.5-7.2-2.3-2.7-5.1-3.7l5.3 5.3-1.2 2q3.3 4 4.3 4 0.7 0 1.2-0.4zm-13.9-10.9v-0.6q0-1.4-1.3-3-1.3-1.7-1.5-1.7l-1.3 3.7q0.3 1 0.8 1.3 0.7 0.3 1.7 0.3h0.8zm-24.9-34.3l-1.5-1.7-2.8 3.6 1.5 1.7zm-5.6-6.3q0-4.6-4.1-4.6-3 0-4.3 3.6 1.8 4.3 5.6 4l1.3-0.3q1.5-2.4 1.5-2.7zm50.1 65.8q-0.5-1-1-1.4-0.5-0.3-1.1-0.3-1 0-2.5 1.7-1.5 1.6-2.5 1.9l1.5 1.7q0.8 0.3 0.8 0.3 0.2 0 0.2 0 1 0 4.6-3.9zm-9.2-1.7v-2.6h-2v2.6zm13.2 12.6h-3.3q-1.8 0-2.3 2l1.5 1.6q2.1-0.3 3.1-1.3 1.3-1 1-2.3zm-26.4-28.8l-1.3-2-1.5 2 1.5 1.7zm-52.6-57.8v-2h-2.8zm15.2 27.1v-2l-1.5 3.6zm8.1 25.1q-0.2-1.6-2-1.6-1.8 0-2 1.6l1.3 2h0.5q0.7 0 2.2-2zm-20-19.8v-2.6h-2.1v2.6zm10.5 19.8h-4.1l-0.3 0.7q0 1.6 1.8 1.6 2 0 2.6-2.3zm4.8 18.2v-2.6h-2v2.6zm-5.6 7.3v-2.7h-2.1v2.7zm5.6 7.2v-2.6h-2v2.6zm242.5-9.9l0.3-0.3q-0.5 8.6-2.1 16.8-1.5 8-5.1 15.6-4 8.6-8.6 14.5-4.6 5.6-10.2 7.3-0.7 1.3-2.8 3-1.7 1.6-4 3.9-5.6 5-23.9 5.6-5.1-0.3-10.7-1-5.6-0.9-11.2-3.3-6.6-1.6-11.7-4.3-5.1-2.6-9.1-6.2-3.1-3-6.9-8.9-3.8-6.3-7.4-14.6-3.3-9.2-5.3-16.2-1.8-6.9-1.8-12.5 0.3-16.6 5.6-19.5 1 0.3 1.8 0.3 1 0 2 0 1 0 3.1 0 2.3-0.3 4.5-0.3 2.3-0.4 4.4-0.4 2-0.3 3.3-0.3 11.4 0 16.5 7.3 0.2 9.6 3.6 16.8 3.5 7 10.9 13.6 2 2 3.8 2 1.3 0 3.6-1 2.2-1.4 3.8-1.4 1.7 0 3.8 2 3-2.9 2.5-8.6h1.3q1.5 0 4.1-3.6-2.6-2.6-2.6-5.9 0-1 0.3-2.4 0.2-1.3 0.5-2.6 0.2-1.6 0.2-3 0.3-1.6 0.3-2.3 0.2-5.9-7.6-15.2-7.7-9.2-22.2-23.1 0.3-1.3 0.3-2.3 0.3-1 0.3-1.7 0-6.3-8.2-7.9-9.6-8.9-16-17.2-6.4-8.6-9.9-14.9-5.3-9.9-8.1-20.4-2.6-10.6-1.8-22.5-0.3-15.9 3.5-27.8 3.8-12.2 13.3-21.4 7.8-7.6 17.5-10.3 9.9-3 23.1-2.6 20.9-0.4 34.6 9.9 14 10.2 17.8 31.7 1 5 2.5 10.3 1.6 4.9 1.6 9.5-0.3 15.2-15.8 15.2-2.5 0-5.6-0.3-2.8-0.3-6.3-1.7-3.1-0.6-5.9-1.6-2.8-1-5.6-2l-2.8-13.5 1.3 1.6 2.8-3.9q-5.6-4.7-10.9-7.3-5.1-3-10.7-5-2.1 1-4.3 4-2.3 2.6-3.9 5.3-1.2-0.3-2.8-1.3-1.5-1-3.5-3.3-4.3-4.7-6.1-4.7-2 0-3.8 4 0.2 0.3 2 1.6 2 1.4 5.3 3.7 5.6 3.6 5.6 6.9 0 0.7-0.2 1.7 0 1-0.5 2 0.2 4.2 2.3 8.9 2.3 4.6 6.3 9.2 4.9 6.3 7.6 10.6 2.8 4.3 4.1 6.3l-1.3 2 2.6 3.3q0.2-1.7 2.3-1.7h3l28.5 31.7q1 0.4 3.3 3.3 1.5 2 4.3 10.3 1 3.3 2.3 5.6 1.5 2.3 3.3 3.6 2.6 8.3 3.8 16.5 1.3 8 0.8 16.9 1 3.3 1 7.9zm-54.6-178.4v-2.6h-2.1v2.6zm-34.8 26.1h-6.4q0.3 2 2.8 2 2.6 0 3.6-2zm17.3 45.9v-2.6h-2.1v2.6zm21.7 33.4v-2.6h-2.1v2.6zm-12.4-13.9v-2.6h-1.8v2.6zm29.5 38.7v-2l-1.6-1.6zm10.7 17.5l1.5 1.6zm-52.6-65.1v-1.6h-1.5zm-12.2-15.9v-1.6l-1.8 3.3zm51.1 68.7q-1-2-3-2-2.6 0-3.6 2l1.3 1.6h3.3q1.8 0 2-1.6zm-62.8-75.7v-2.6h-2v2.6zm29.2 40.3h-1.2l-4.1 5.3zm56.9 86.3v-1.7q-3.8 0-4-1.6l-1.6 1.6q0.8 2 2.3 2 3.6 0 3.3-0.3zm-22.3-17.5v-2.7h-2.1v2.7zm2.1 17.5v-1.7q-0.8-2-3.1-2-1.8 0-2.5 2 0.7 2 2.3 2 3.5 0 3.3-0.3zm0.5 33.3v-2.6h-2.1v2.6zm-10.1-5.3l-1.3-1.6-1.3 1.6 1.3 2zm-8.1 7.3l1.5-2q-1-1.6-2.6-1.6h-0.5-1zm-38.4-26.5v-2.6h-2v2.6zm8.1 13.9v-2.6h-2.3v2.6zm6.1 10.6l-1.5-1.7-1.5 1.7 1.5 2zm186.9-114l-0.3 52.8q-2.3 1.7-2.3 3.7 0 1.3 0.8 3.9 0.8 2.7 0.8 4 0 0.3-0.3 1.3 0 0.7 0.3 1.7-2.3 17.8-6.1 31-3.9 12.9-8.4 20.5-7.2 10.9-16.8 15.5-9.4 4.3-23.4 4-12 0.3-21.4-3-9.4-3.6-15.7-8.9-4.1-3.9-7.9-10.2-3.8-6.3-6.6-13.9-3.1-7.9-4.8-15.2-1.8-7.6-2.6-13.9-1.3-36.3-1.5-54.2 0-17.8-0.8-18.8 0.3 0 0.5-14.9 0.5-14.8 2.3-46.2 0.8-10.9 2.8-18.2 2.3-7.3 6.6-13.2 2.1-9.3 6.4-15.5 4.6-6.6 12.7-10.6 12.5-7.6 28.7-7.6 14.5 0 25.7 5.6 11.4 5.6 19.1 18.2-0.3 0.6-0.5 1.3 0 0.3 0 1.3 0 1 0.7 2.7 0.8 1.6 1.8 3.3 1 1.3 2 2.9 1.1 1.4 1.3 2.4 1 4.3 1.8 9.9 1 5.6 1.8 13.2 1 17.5 1.7 33.7 1.1 16.2 1.6 31.4zm-24.4-74.4l0.2-0.6q0-0.7-1.5-2.7l-1.3 1.7q2.1 2 2.1 2zm-10.7-7v-1.6q-0.3-2-1.5-2-0.6 0-1.3 0.7-0.5 0.6-1 1.3-0.5 0.6-1 1.3-0.3 0.3-0.6 0.3zm20.9 29.8v-2.7h-2v2.7zm-12.8-12.3v-1.6q-0.5-2-2-2-1.5 0-2 2 1 1.6 2.3 1.6zm-30.3-38.3v-2.6h-2v2.6zm30.2 52.2l-1.2-1.6-1.6 1.6 1.6 1.7zm-17.6-19.2v-1.7l-1.3-1.6zm-9.4-17.5q-0.5-1.3-1.2-1.3 0 0-1 1-1.1 0.6-3.1 2.3 0.3 1.3 1.5 1.3 0 0 3.8-3.3zm30.3 54.2v-2.7h-2v2.7zm-41.5-50.6v-2.6h-2v2.6zm30 38.3v-1.6q-1 0.3-2-1-1.1-1.3-2.1-2.6l-1.3 1.6q3.1 4 4.4 4 0.2 0 0.5 0 0.2 0 0.5-0.4zm22.9 38.4v-0.7q0 0-1.3-3l-1.5 2q1 1 1.2 1.3 0.5 0.4 0.8 0.4zm-67.1-85.6v-1.7q-1.3-1.9-3.3-1.9-2.1 0-3.3 1.9 0.7 2 2.5 2 4.3 0 4.1-0.3zm8.1 24.4v-0.3q0-0.6-1.2-3l-1.6 1.7q2.1 2 2.1 2zm52.3 75v-1.7h-1.5zm-57.7-73h-1.5v1.7zm68.4 88.8q-0.8-1.9-2.8-1.9h-4.1q0.8 2.6 4.8 2.6 1.5 0 2.1-0.7zm-29-8.9v-2.6h-2.1v2.6zm28.3 36.7v-2.6h-2.1v2.6zm-82.3-94.2l1.2-1.6q-1-1-1.5-1.3-0.2-0.7-0.5-0.7l-0.8 0.3zm5.4 4.3v-0.6q-2.3 0.3-5.4 4.3v0.9q0.3-0.6 1.1-0.9 1-0.7 2-1 1-0.7 1.5-1 0.8-0.7 0.8-1.7zm48.3 36q-0.5-1-1-1.3-0.6-0.6-1.1-0.6-0.7 0-2 0.6-1 0.7-1.8 0.7-2.3 0-2.3-3.7 0 0 1.3-2.9-1.3-2.7-1-5.7 0-1.3 0.2-3.3 0.6-2.3 0.8-4.6 0.5-2.3 1-4.3 0.5-2 0.5-2.9l1.3 1.6 1.3-1.6-1.3-1.7-1.3 1.7q-2.8-3.7-2.8-8.3 0-1.3 0.3-3 0.2-2 0.5-3.9 0.3-2.4 0.5-4.3 0.3-2 0.3-3 0-3.3-1.6-6.6-1.2-3.7-3.5-6.3-2.1-3-4.6-4.6-2.5-2-5.3-2-6.1 0.3-8.9 10.2-1.3 1.7-3.1 16.2v0.4q0 1.3 0.5 3.9 0.8 2.3 0.8 3.7 0 2.9-2.6 4.2 2.6 2.7 2.6 7 0 1.6-0.5 4.9-0.5 3.3-0.5 5.3 0 3.3 1 5.3-1.5 1-1.5 2.3 0 0.7 0.7 2 1 1.3 1 2.3 0 1.3-1.5 2.3 1.5 3.7 1.3 10.3-0.5 7.6 0 10.6-1.5 1.6-1.5 3.9 0 1.7 0.7 4.6 0.8 2.7 0.8 4 0 3.3-2.6 5-1.7-2-2.8-3-1-1-1.5-1-0.2 0-0.5 0-0.2 0-0.7 0.3v1.7q2 2 3 2.6 1 0.7 1 0.7 1.3 0 1.5-1.3l2.6 3.3v1.9q0 2-1.3 3.4 1.3 1.9 1.3 6.9v6.9q-1.5 2.7-1.5 4.7 0 0.9 0.5 2.6 0.7 1.7 1.5 3.6 1 2 1.5 4 0.8 1.6 0.8 3l0.2 1.3q2.3 6.3 5.9 9.6 3.5 2.9 8.6 2.9 0.8 0 1.3 0 0.8 0 1.3-0.3-1.3-2.6-1.3-4.6 0.3-1.3 1-3.3 1-2.3 2.3-4.6 1.3-2.7 2.3-5.7 1-2.9 1.3-5.9-0.5-12.6-0.5-19.5 0-6.9-1.1-10.2 1.6-1.4 1.6-3.3 0-1.4-0.8-3.3-0.5-2-0.5-3 0-2 1-2.7l-1.3-1.9v-1.4q0-3.3 1.3-3.6l-1.3-2q-0.2-1-0.2-2 0-1 0-2.3 0.2-6.9 1.8-9.9 1.5-3.3 4.8-3.3 0.2 0 0.8 0 0.5 0 1 0.3zm9.4 52.2v-1.6h-1.5zm-46.3-55.9v-2.6h-2v2.6zm44.2 66.1v-2.3h-2v2.3zm-63.9-81.9v-0.3q0-0.4-1.2-3-1.6 0.3-1.6 2.6 0 1.7 1.6 2.7zm67.9 96.1v-2.6h-2.1v2.6zm-51.8-61.1h-1.3v1.6zm42.9 69.8h-6.6l-1.2 3.6zm5.3 17.5l-1.3-2-1.2 2 1.2 1.7zm-48.8-55.9v-2.6h-2v2.6zm-24.9-29.7l1.2-1.7q-1.5-1.9-2-1.9l-0.5 0.3zm61 81.9v-2.6h-2v2.6zm-52.1-64.4v-2.7h-2.1v2.7zm8.7 9.2v-0.6h-0.5q-2.3 0-2.3 3v0.6h1.5q1.3-2.6 1.3-3zm12.2 24.5l-0.3-0.7q-0.5 0.4-2.5-1.6l-1.5 3.6q2 1.7 2.2 1.7h0.6q1.5-2.3 1.5-3zm22.6 34.4q-1-2-3.3-2-2 0-3.3 2l1.3 1.6h3q2.1 0 2.3-1.6zm-40.2-43.7v-1.6h-1.5zm-10.9-12.2q-0.5-2-2.6-2-2 0-2.8 2l1.6 1.6h1q2.3 0 2.8-1.6zm53.9 73.3v-2h-2.8zm-18.8-21.1v-1.7q-0.8 0.7-2.8-1.6zm8.6 12.2v-2.6h-2v2.6zm-48.3-52.2v-2.6h-2.1v2.6zm30.8 40v-2.7h-2v2.7zm-7.1-13.2l-0.3-0.7q-1-2-3.8-2-2.8 0-2.8 3.3 0 2.3 2 2.3h3.3q1.6-2.6 1.6-2.9zm200 37.3h-0.2q-0.3 3-0.8 6.3-0.2 3-1 5.6-0.8 2.3-2.3 4.3-1.5 1.6-3.8 1.6-2.3-0.9-4.3-1.3-2.1-0.6-4.6-0.3-1.3 0-3.6 0.3-2 0.4-4.3 0.7-2.3 0.3-4.6 0.6-2 0-3.3 0-5.1 0-10.6-3.6-3.9-7.6-5.4-14.9-1.5-7.2-1.5-15.8-0.5-1.3-2.5-8.9-1.8-7.6-5.6-22.5-2.8-15.9-5.1-25.4-2.1-9.6-3.1-11.9 1.3 0.3 3.1 0.3 9.1 0 11.9-7.6-0.5-0.7-1.2-1-0.8-0.7-2.1-0.7h-4.8q-0.8 3-2.6 3-0.5 0-1.2-0.3-0.8-0.4-1.6-0.7-0.7-0.6-1.5-1-0.7-0.6-1.2-0.6-1.8 0-2.8 3.3l-1.8-1.7q-4.1 2-5.4 10.6-0.7 8.3-4 10.9 2.5 2.6 2.5 5.9 0 1.7-0.8 5-0.5 3-0.5 5 0 1.6 0.5 3.3 0.8 1.3 2.3 2.9 0-2.6 0 5.3 0 7.6 0.3 26.8-0.5 9.2-0.8 16.8 0 7.3-1 13.6-2.3 2.3-5.8 3.3-3.6 1-8.2 1.3-9.9-0.3-14.5-0.3-4.3 0-3.5-0.4-8.2-3.9-8.2-15.8 0-4.3 1.6-7.6l-2.3-2.3q0.5-18.2 0.7-32.1 0.6-14.2 0.6-24.4 0.2-10.6 0.2-17.2 0.3-6.9 0.5-10.6 0-5.3 1.5-7.2-1-10.6-1.2-22.2-0.3-11.6 0.2-25.1l-0.2-41.6 1-2.3-2.6-44.6q3.6-10.6 9.5-10.3 1.7 0 3 1-0.3 0.3 3.3 0.3 3.6 0 11.4 0 3.6 0 6.4-0.3 3.1-0.3 5.6-1.3 4.1 3.6 7.4 9.9 3.5 5.9 5.6 14.5 1.2 7.6 2.8 14.9 1.7 7.3 3.5 14.5 1.8 6.3 3.1 11.6 1.5 5.3 2.5 10.2-3.3-3.9-4.3-3.9 0 0-0.5 0-0.3 0-0.8 0.3l-3 3.6q1 2 2.5 3.7 1.8 1.3 4.3 3 3.8 2.6 5.6 9.5 0.8 3 3.1 4.3 2.3 1.4 5.8 1.4h4.1q1.3-1.7 2.5-3.4 1.6-1.9 1.6-3.9-1.1-2-3.1-2h-1l-1.5 2.3q0.7-5.3 1-10.6 0.2-5.6 0.2-11.9 0.3-7.9-0.7-23.7-0.5-7.6-1-13.6-0.3-6.3-0.3-10.2 0-4.3 0.3-7.6 0.2-3.7 0.5-6 0.2-1.6 1-2.6 0.7-1.3 2-2 1.3-0.7 2.6-1.3 1.2-0.7 2.5-1.3 3.6 1.9 8.6 1.9 0.8 0 2.6 0 1.8-0.3 3.5-0.3 2.1-0.3 3.6-0.3 1.8-0.4 2.8-0.4 5.3 0 7.9 3.7 2.5 3.3 3 9.9-1.5 0.6-1.5 2 0 0.3 0.3 1 0.2 0.6 0.2 1.6 0.3 0.7 0 1.7-0.2 0.6-1 1.3-0.3 36.3-0.5 63.4 0 26.8 0 44 0 17.5 0 25.7 0 8.3 0.2 8-0.7 0.6-0.2 21.4 0.7 20.5 2.5 61.5zm-35.6-186.3v-3h-2v3zm12.2 23.4l2.5-3.6q-0.7-2-2.5-2-2.3 0-3 2zm-10-9.3v-1.6q0-2.7-1.2-3.7-1.6 3-2.3 4.3-0.5 1.4-0.5 1 0 2 1.5 2 1 0 2.5-2zm-41.1-39.6v-2.7h-1.8v2.7zm66.3 83.2h-3l1.5 1.7zm-58.5-68.7l1.6 1.6zm47.5 62.1q0-2.6-3.3-2.6-1.8 0-2.8 2 0.3 0 0.5 0.6 0.5 0.7 1 1.4 0.8 0.6 1.3 1.3 0.5 0.3 1 0.3h0.5q1.8-2.6 1.8-3zm-11.7-4.3l1.8-1.6q-1-1-1.5-1.3-0.6-0.7-0.8-0.7h-0.8zm23.9 29.1l-1.2-2-1.6 3.6h0.3q0.5 0 1-0.3 0.8-0.7 1.5-1.3zm-30-34.4v-3h-1.7v3zm-39.5-47.2l1.1-1.7q-1.8-2-1.8-2h-1zm9.6 12.9h-1.5v1.7zm-33.6-40q-1-2-3.3-2-2.5 0-3.8 2l1.6 2h3.3q1.5 0 2.2-2zm54.2 74.3l-1.3-1.9-1.5 1.9 1.5 1.7zm-29.2-38q-0.5-2.3-2.8-2.3-2 0-2.8 2.3l1.5 1.6h1q2.3 0 3.1-1.6zm47.3 52.2l-4.1-3.6q-1.5 5.2-6.9 6.6-3 1-4.8 2-1.5 0.9-2.3 2.3 0.8 0.3 1.3 0.3 0.5 0 1 0 1.8 0 3.6-0.7 2-0.6 4.5-1.9zm-42.7-43.3v-1.7q-1.2-2-2.3-2-1 0-3.3 5.3 0.6 2 2.1 2h2q1.5-1 1.5-3.6zm-15.5-14.6l1.3-1.6q-1-1-1.3-1.3-0.2-0.7-0.5-0.7h-0.7zm44.4 53.5v-1l-2.5 3.7h1q1.5-2.3 1.5-2.7zm-26.4-26.4v-0.7q0-0.3-1.5-2.9l-1 1.9q1.7 2 1.7 2zm-23.3-32.4h-1.6v1.7zm42.7 55.8q-0.2-1.6-1.7-1.6-1.8 0-2.3 1.6l1.2 2h0.8q0.5 0 2-2zm-10.9-14.2l-2.8-3.6-2.5 3.6 2.5 3.7zm13 21.4v-2.6h-2.1v2.6zm17.8 21.8l-1.7-1.6-2.6 3.6h1q2.6 0 3.3-2zm-5.6-6.2v-1q-1.2-2-4-2-3.1 0-3.1 3.3 0 2.3 2.3 2.3h3.3q0.8-1.3 1-1.6 0.5-0.7 0.5-1zm-44.7-54.6v-0.6q-0.2-0.3-0.5-0.3-0.3 0-0.8-0.4-3 0-3 3.7 0 1.6 1.8 2.3 0 0 0.2-0.4 0.5-0.6 1.3-1.6 1-1.3 1-2.7zm55.9 73.4q-0.5-5.9-6.8-5.9-6.4 0-6.1 5.2l0.2 0.7q2.3 2.3 6.4 2.3 1.8 0 3.3-0.3 1.5-0.7 3-2zm3.8 10.9q-0.2-2-2-2-1.5 0-1.8 2l1.1 2h0.5q0.5 0 2.2-2zm-54.1-74q-1-2-2.5-2-0.8 0-1.8 0.7-1 0.3-2.1 1-1 0.6-2 1.3-0.8 0.6-1.5 0.6-0.3 0.4 4.6 0.4 3.8 0 5.3-2zm35.3 54.2v-2.7h-1.7v2.7zm-49.1-59.8v-1.7h-1.5zm16.7 23.8l6.7-3.6q-3.4-4-4.4-4-2.5 0-2.5 3 0 2.3 1.3 2.6-0.8 1-1.8 1.4-1 0.3-2.3 0.3-2 0-3.6 0.6-1.2 0.4-2 1.4 0.8 0 1.8 0.6 1 0.7 2 1.3 1.3 0.7 2.3 1.4 1.3 0.3 2 0.3 1.6 0 3.1-2zm9.6 7v-0.4q0-0.6-1.5-3.3l-7.1 7.3 1.5 2q0.5-1 1.6-1.7 1-1 2-1.6 1-0.7 2-1 1-0.7 1.5-1.3zm6.7 25.4l7.1-8.9q-1.3-1.7-2.1-1.7-0.7 0-1.7 1.3-0.8 1.4-1.6 3-0.7 1.3-1.5 3-0.8 1.3-1.3 1.6zm-19.3-43.2q-0.7-0.4-1-0.4-0.5 0-0.5 0-0.8 0-2 0.4-1.3 0-2.8 1-2.1 1.3-3.3 1.9-1.1 0.4-1.6 0.7l1.3 1.6q0.3 0 1.5 0 1.6-0.3 4.1-1.3 3.3-0.3 4.3-3.9zm57.2 87.5l-0.2-1h-0.5q-2.3 0-2.3 3v0.7h1.7q1.3-2 1.3-2.7zm-19.6-24.4h-1.5v1.9zm-5.3-8.5q0-0.7 0-1 0-0.4-0.3-1.4-1.5-1.9-2.3-1.9-0.2 0-0.7 1.3-0.5 1-1.3 2.3-0.5 1.3-1.3 2.6-0.7 1.4-1.5 1.4l1.5 1.6q0.3-0.3 1.3-0.6 1-0.7 2-1 1.1-0.7 1.8-1.4 0.8-1 0.8-1.9zm-13-27.5q-2.3-3.3-5.3-3.3-1.6 0-3.6 1.4-2 0.9-4.6 3.3-3.5 3.6-5.3 5.6-1.8 2-2 2 0.7 1.9 3.3 1.9h1.2q2.1-3.9 7.7-6.2 3.3-1.4 5.6-2.4 2.3-1.3 3-2.3zm-34.6-29q-1.7-2.4-3.3-2.4-2.5 0-4.8 4.3 0.5-1.9 1.8-1.9 0.7 0 2 1 1.5 0.9 2.1 0.9 1.2 0 2.2-1.9zm58.3 79.6l0.2-0.7q0-0.6-1.5-2.9l-2.6 3.6 1.3 2h0.3q0.7 0 2.3-2zm-19.1-26.1q0-2.7-2-2.7-2.6 0-2.6 3v0.3q2 2 2.3 2h0.5q1.8-2.3 1.8-2.6zm24.6 33.4q0 0-0.5-0.4-0.2-0.6-1-2-1-1.3-1.5-1.3-2.5 0-2.5 2.7 0 2.3 1.7 2.6l1.1 0.3q2.5 0 2.7-1.9zm-62.2-77.7q-0.5-2-2.3-2-1.5 0-1.8 2l1 1.7h0.5q0.3 0 0.8-0.4 0.7-0.6 1.8-1.3zm30.5 38.7q0-2.7-2.8-2.7-2.3 0-4.3 3.7 0.5 1.9 2.5 1.9 3.3 0 3-0.3 1.6-2 1.6-2.6zm16.7 20.8q-2.2-1.7-3.8-1.7-5.8 0-7.6 7.3 0.8-1 2.3-1.7 1.8-0.9 3.3-1.6 1.8-0.7 3.3-1 1.8-0.7 2.5-1.3zm-45.5-48.9v-2.7h-1.7v2.7zm-26.5-34.4v-2.6h-1.8v2.6zm38.4 45.3v-3.6q-0.5-0.4-1-0.4-0.5 0-1 0-1.8 0-3.6 0.7-1.7 0.3-4 1-2.8 1-4.9 1.6-1.7 0.4-2.2 0.4 0.7 0.3 2.2 0.9 1.8 0.7 3.3 1.4 1.6 0.3 3.1 1 1.5 0.3 2.5 0.3 3.6 0 5.6-3.3zm37.7 52.5q-1.8-1.6-3.9-2.3-1.7-1-4-1-4.3 0-7.6 3.3 2 3.7 4.3 3.7 1 0 2.3-0.4 1.5-0.6 3-1.3 1.8-1 3.3-1.3 1.5-0.7 2.6-0.7zm-36.1-36l0.2-0.7q0 0-1.8-2.9l-1.5 1.6q2 2 2.3 2zm44.2 61.5l0.3-0.7q0-0.7-1.3-3l-1.8 1.7q2.1 2 2.6 2zm-38.7-50.9q-0.5-1.7-2.3-1.7-1.5 0-1.7 1.7l1 2h0.5q0.5 0 2.5-2zm-27.9-32.4q-0.8-2-2.3-2-1 0-1.8 2l1.5 1.7 0.3 0.3q0.5 0 2.3-2zm55.9 76q-1-2-2.5-2-1.3 0-2.1 2l1.5 1.6 0.3 0.4q0.8 0 2.8-2zm-18.6-19.8l1.8-2q-0.7 0-1.8-0.7-0.7-0.6-1.5-1.6-0.7-1-1.5-1.7-0.5-0.6-0.8-0.6-1 0-1.5 1zm32.3 38.6l-0.3-0.7-1.5-0.3q-1.5 0-2.3 2 1.8 2 1.8 2l0.8-0.3q1.5-2 1.5-2.7zm-61.3-73l1.3-2q-0.8-2-2-2h-0.8l-1.3 0.4zm-5.3-7.3l-1.5-2-3.1 3.6 1.5 2zm37.2 57.8l4.5-3.6q-0.7-2-2.3-2-2.2 0-2.2 4 0 0.3 0 0.7 0 0.3 0 0.9zm16 16.2v-2.6h-1.8v2.6zm-42-65.4q0-1-0.2-1.6 0-0.7-0.3-1.7-0.2 4.3-4.8 6.6-4.8 2.7-5.8 6l2.5 3.6q1.5-1 3-2 1.6-1 2.8-2.3 1.3-1.6 2.1-3.6 0.7-2 0.7-5zm33.1 59.2v-1h-0.5q-0.3 0-2.1 1.9l1.1 1.7q1.5-2.3 1.5-2.6zm-49.8-62.5l-1.6-1.6-3 3.6h1.3q2.5 0 3.3-2zm16.2 29.1v-2q-1.5-2-1.7-2l-1.1 0.3zm51.9 66.8l-1.8-1.7-1.3 1.7 1.3 2zm-62.5-70.4l-8.7-5.6q1.3 6.9 5.9 6.9 1.8 0 2.8-1.3zm-3.1 30.7q-0.7-2-2.3-2-1 0-1.7 2l1.5 1.7 0.2 0.3q0.5 0 2.3-2zm-12.7 18.2v-2h-4zm-513.3 200.7h0.3q-1.6 3.4-1.9 9-0.3 5.2 0 12.5 0.7 14.5-1.5 21.8 0.6 2 0.9 4.5 0.6 2.4 0.6 4.8 0 4.5-1.2 9.4-1.3 4.8-4.1 10v11.1q-3.2 0.3-5.1 5.2-0.6 3.8-1.2 5.9-0.6 1.7-1.3 2.7-8.5 14.6-20.4 22.5-11.7 7.6-26.8 7.3-4.7 3.8-10.7 3.8-1.3 0-3.5 0-1.9-0.3-4.1-0.3-2.2-0.4-4.4-0.7-2.2-0.4-3.1-0.4-4.7 0-6.9 1.4l-3.8-4.2q-2.5 2.5-6.6 3.5-4.1 1-9.5 1.4-11.3-0.4-16.3-0.4-4.8 0-3.5-0.3-1.6-1-8.8-4.8-4.7-2.5-5.1-8.4 1.9-0.6 1.9-2.4 0-0.7-0.9-2.4-1-1.7-1-2.8 0-1.7 0-4.5 0-3.1 0.4-6.5 0.3-8 1.2-9.7 0.3-9.7 0-20.1 0-10.4 0-22.2 0-3.4 0-9 0.3-5.9 0-13.5v-21.8-30.8q0-1.4 0.3-2.1 0.4-1 0-1.4l-1.9-102.8q0.7-2.1 2.3-4.1 1.5-2.1 3.7-3.5 2.5-1.7 5.1-2.4 2.5-0.7 4.7-0.4l76.8 2.8q6.9 0.3 13.5 3.5 7 3.1 13.6 10 6.9 5.9 11 12.8 4.1 6.6 5 13.5v2.1q0 1 1 2.4 1.2 1.4 2.5 2.8 1.3 1 2.2 2.4 1.3 1.4 1.3 3.5 0 1.7 0.3 4.5 0.3 2.7 0.6 5.5 0.3 2.8 0.6 5.2 0.7 2.1 0.7 2.8-0.7 0.3 0.3 18.3 0.9 18 2.8 53zm-79.3-127.1v-2h-1.6zm43.4 51.2v-2.1h-2.2zm-13.8-17.3q-1.3-2.1-3.8-2.1-2.2 0-3.5 2.1l1.9 2.1h1.9q2.2 0 3.5-2.1zm-31.2-22.5v-2.1q-4.1 0-5.3-1.7l-1.6 1.7q0.9 2.1 2.8 2.1zm13.9 15.6v-0.7h-0.6q-0.7 0-3.2 2.1l2.2 1.7q1.6-3.1 1.6-3.1zm38.1 42.9v0.4q-0.7 0.6-2.2 1-1.6 0.3-3.5 1-1.6 0.4-3.1 1.4-1.3 0.7-1.9 2.1l1.5 1.7zm-51.9-43.6h-1.3-1.2q-2.2 0-2.8 2.1l1.5 1.7zm33.1 40.5l-0.3-0.7-0.7 0.4q-0.6 0-2.8-2.1l-1.9 3.8q2.5 2.1 2.8 2.1l1-0.4q1.9-2.4 1.9-3.1zm13.5 29.8l3.2-3.8q-2.2-2.1-2.9-2.1-2.2 0-2.2 3.1 0 1.8 1.9 2.8zm-58.9-62.3l1.6-0.4q-2.5-4.5-6.6-4.5l-1.6 0.7q1 2.4 2.9 3.5 1.9 1 3.7 0.7zm92.3 99.3v2.8h-2.2v-2.8zm-111.8-107.3v-2.8h-2.5v2.8zm14.5 22.9q-1-2.1-2.5-2.1-1.9 0-2.9 2.1l2.2 2h0.7q0.3 0 2.5-2zm91.3 110.7v-0.6l-1.6-0.4q-2.8 0-3.8 2.1 2.5 2.1 3.2 2.1h0.6q1.6-2.5 1.6-3.2zm-98.2-103.1l-3.2-3.8-2.2 2 3.8 3.5zm55.4 61.3v-0.7h-1.3q0 0-2.5 2.1l1.6 1.7q2.2-2.8 2.2-3.1zm-44.7-40.5q-1.9-2.1-5.4-2.1-4.1 0-3.7 3.8v0.4h5q2.5 0 4.1-2.1zm-17.6-11.4l1.5-1.8q-2.2-2.1-2.5-2.1h-0.6zm-12.3-13.1h-1.6v2.1zm79.7 87.9l-0.3-0.7-0.7-0.3q-2.5 0-2.5 3.4v0.7h1.6q1.9-2.4 1.9-3.1zm-63-57.5v-3.1h-2.8v3.1zm52.6 89h-1.9q-3.5-4.1-3.5-10 0-1.4 0.3-3.5 0.3-2.1 0.7-4.1 0.3-2.1 0.3-3.9 0.3-2 0.3-3.1l-1.6-2q0-0.4 0-0.7 0-0.4 0-0.7 0-1.4 3.5-6.3l-3.5-3.8q0.3-0.7 0.3-1.7 0.3-1 0.3-2.4 0-1.1-0.3-2.5 0-1.7-0.3-3.4 0-2.1 0-3.5 0-1.7 0-2.7 0-8 5.4-10.1-5.1-0.7-5.1-3.4 0-1.4 0.7-3.9 0.9-2.4 0.9-3.8 0-2.7-1.9-4.1 1.9-2.4 1.9-5.2 0-2.1-0.9-5.2-1-3.5-1-5.2 0-3.1 1.6-5.2-1-2.4-1-7.3 0.7-9 1-6.5 0-4.9-1.9-9.4-1.6-4.5-4.1-7.9-2.5-3.9-6-5.9-3.4-2.1-7.5-2.1-3.5 0-6.3 1.7-2.9 1.8-4.8 5.2-0.9 6.6-1.5 10.1-0.7 3.1-0.7 3.1 0 4.5 2.2 7.6-2.2 5.2-1.8 11.4 0 2.1 0.3 5.6 0.3 3.1 0.6 6.5 0.3 3.5 0.6 7 0.3 3.1 0.7 4.8 0 1.4 0 2.4 0 1.1-0.4 2.1-2.2 3.5-2.2 9.3 0 1.8 0.4 4.5 0.3 2.8 0.6 6.3 0.6 3.1 0.9 6.2 0.3 2.8 0.3 4.9 0 2.7-0.6 5.5-0.6 2.4-1.6 4.8 0.4 1.1 0.7 3.5 0.3 2.4 0.9 5.9 0.6 2.8 1 4.8 0.3 2.1 0.3 3.8 0 11.1-7.6 12.2 2.5 1 3.8 4.8 1.6 3.8 1.6 9.4 0.3 6.9 1.5 11.4 1.3 4.1 3.2 6.9 1.9 2.4 3.8 3.5 2.2 0.7 3.4 0.7 4.8 0 10.4-5.2l8.2-8.3q-1.2-2.8-1.2-5.9 0-3.5 2.5-8.7 1.9-3.4 2.8-5.5 0.9-2.1 1.3-2.8zm-41.6-75.1v-0.7h-0.9q-0.4 0-1 0.7-0.3 0.3-1.2 1l1.5 2.1q1.6-2.8 1.6-3.1zm-20.8-19.7q-0.9-1.8-1.9-1.8-1.2 0-3.4 1.8-2.2 1.7-3.2 2l1.6 1.8q0.6 0.3 0.9 0.3 0.4 0 0.7 0 1.6 0 5.3-4.1zm23.6 36v-2.8h-2.8v2.8zm55.7 70.2q-0.3 0.7-1.5 1.1-1.3 0.3-2.9 0.7-1.6 0-2.8 0.7-1 0.3-1.3 1.3l1.6 1.8q1.3-1.1 2.8-2.1 1.9-1.4 4.1-3.5zm2.2 16q0-2.8-2.8-2.8-1.9 0-2.5 2.1l3.1 3.8q2.2-2.4 2.2-3.1zm-91.3-95.2v-0.4q-1.9 0.4-4.1 1.4-2.2 0.7-5 2.4 1.3 1.7 3.8 1.7h1.6q0 0 0.6-0.3 0.6-0.7 1.9-1.7 1.2-1.4 1.2-3.1zm19.6 29.7v-2.7h-2.9v2.7zm59.5 72h-1.6v2.1zm-92.2-86.9v-3.1h-2.8v3.1zm23 28.4l-1.6-2.1-1.6 3.8 1 0.4q0 0 2.2-2.1zm18.2 22.5v-2.8h-2.2v2.8zm30.5 47.4v-1.7h-2.2zm10.7 19v-2.7h-2.5v2.7zm-43.4-49.1q-1-2.1-3.2-2.1-1.5 0-2.2 2.1l1.6 1.7 0.6 0.4q0.4 0 3.2-2.1zm-10.7-11.1q0-4.1-5.7-4.1-2.5 0-4.4 1.7 0.3 0.3 1 1.4 0.9 1 1.8 2 1 1.1 1.9 2.1 1.3 0.7 2.2 0.7 0 0 0.3 0 0.4 0 1.3-0.3 1.6-2.5 1.6-3.5zm31.1 41.2l1.6-1.7q-0.6-2.1-3.1-2.1h-2.2zm-13.6-11.4l1.3-1.8q-1.9-2-2.5-2l-1 0.3zm-19.2-14.9q-1.2-2.1-3.8-2.1-2.2 0-3.1 2.1l1.6 1.8h2.2q2.5 0 3.1-1.8zm17 24.6v-0.7q0-0.3-1.5-3.1l-3.2 3.8 1.6 1.7 0.6 0.4q0.3 0 2.5-2.1zm18.9 20.8q-0.9-2.1-3.1-2.1-3.8 0-3.8 3.5v0.7h4.7q1.9 0 2.2-2.1zm-28.9-24.6v-0.7q0-1-1-1.7-0.6-0.7-1.6-1.1-0.9-0.7-1.9-1-0.6-0.7-0.9-1.4l-1.6 3.8zm-12.9-11.4v-2.8h-2.5v2.8zm4.4 22.8l1.6-2q-2.5-2.1-3.2-2.1l-0.6 0.3zm252.2 13.5h-0.4q-0.9 10.4-3.1 13.9-3.5 6.9-10.4 6.9-2.8 0-6.9-0.3-3.8-0.4-9.5-0.7-11.3-1.1-17-1.1l-16.6 0.4q-2.9 0.3-7 0-4.1-0.4-9.4-0.7-5.7-0.7-9.8-1.1-4.1-0.3-6.6-0.6-1.9 0-4.7 0.6-2.8 0.4-6 1.1-2.8 0.7-5.7 1.4-2.8 0.3-4.7 0-6 0-11-3.1-6.3-3.9-6.3-9.7 0-1.4 1-3.8 1.2-2.5 1.2-3.9 0-0.6-0.6-1-0.3-0.7-1.3 0 1-60.2 1.6-89.7 0.9-29.7 0.9-29.7 1-0.4 0.7-8.3 0-8-0.7-23.2-0.6-15.3-1.5-38.1-0.7-23.2-1-54l12.3-11.8 86.3 2.4q0.9 0 2.8-0.3 1.9-0.4 3.8-0.7 2.2-0.4 4.1-0.7 2.2-0.3 3.4-0.3 8.5 0 12 2 6.9 4.9 7.5 23.2-0.3 13.2-4.4 28.1l-8.1 5.2-45.4-1.4q-0.6 0-1.9-0.4-0.9-0.7-1.5-0.7-4.1 0-7.9 6.6-1.6 3.5-3.2 5.2-1.5 1.7-2.8 2.4 1 1.4 1 4.5 0 2.8-0.4 5.9 0 2.8 0 5.9 0.4 2.8 1.3 4.5 0 0-1.9 0.7-1.6 0.7-4.7 2.1-3.8 1.4-5.7 4.8 1.6 4.2 6.6 4.2 3.8 0 7.3-2.1-0.3 0.3-0.3 0.7 0 0.3 0 0.7 0 1 0.6 2.4 0.9 1.4 2.5 3.5l49.1 0.3q3.5 2.8 5 5.9 1.9 3.1 1.9 5.9 0 2.8-1.9 5.2 1.3 8.6 1.6 13.5 0.7 4.5 0.7 5.9 0.3 5.5-1.3 9.7-1.6 4.1-3.8 7.2l-50.7 3.5q-0.9 1-2.2 1-1.2 0-3.4-1-2.2-1.4-3.5-1.4-2.2 0-2.8 5.2l3.4 3.8q0.3-2.1 3.2-2.1h1.9q-1.3 3.1-1.9 8 0.3 2.1 0.3 4.5 0 1.7 0 4.1v2.5q-0.6-0.4-0.9-0.4-0.4 0-0.7 0-1.6 0-5.3 4.2 0.3 1 1.5 2.1 1.3 0.6 2.6 1.7 1.2 0.7 2.2 1.7 0.9 0.7 0.9 1.7 0 0.4 0 0.7 0 0.7-0.3 1.4l-5.4 5.9q4.1 2.4 7 5.9 2.8 3.1 5.3 6.9 2.9 1.4 6.6 2.1 3.8 0.3 8.2 0.3 2.2 0.4 6 0 4.1-0.7 9.4-1.3 5.4-1.1 9.5-1.4 4.4-0.4 6.9 0 2.2 0 4.4 0.3 2.2 0 4.1 0.4 1.3-2.1 2.8-2.1 1 0 1.9 0.7 1.3 0.3 2.2 1.4 1 0.7 1.9 1.3 1 0.7 1.6 0.7 3.5 4.5 3.1 11.1 0 1.4-0.3 3.5 0 1.7 0 3.8 0 2.1-0.3 4.1 0 1.8 0 3.2 0 4.1 1 6.5zm-39.1-227.8v-2.7h-2.5v2.7zm-14.5 21.2v-2.1h-1.9zm-25.1-13.5v-2.8h-2.6v2.8zm7 7.6v-2.8h-2.6v2.8zm-9.4 5.9q-0.3-2.1-2.5-2.1-2.2 0-2.5 2.1l1.5 1.7 1 0.4q0 0 2.5-2.1zm-1.6 22.5l-1.9-1.7-1.5 3.8h0.6q0.3 0 2.8-2.1zm-12.3-5.6l-1.5-1.7h-1.6zm2.8 9.4v-2.8h-2.8v2.8zm-27.7-26.3v-2.8h-2.5v2.8zm68 83.4l-1.6-2.1-1.9 2.1 1.9 1.7zm-39.7-34.3l-1.5-1.7-1.9 1.7 1.9 2.1zm27.7 36v-1.7h-1.6zm-37.8-39.8v-0.7q0-0.7-1.9-3.1l-1.5 2q2.2 2.1 2.8 2.1zm11.9 19.1l-1.8-2.1-1.6 2.1 1.6 1.7zm-8.5-5.2v-0.3l-1-0.4q-0.6 0-2.5 2.1l1.6 1.7q1.9-2.1 1.9-3.1zm13.5 12.8q-0.6-0.3-2.2-0.3-2.5 0-9.8 4.1l3.5 3.8q1.3-0.7 2.5-1.4 1.6-0.6 2.8-1.3 1.3-1.1 2.3-2.1 0.9-1.4 0.9-2.8zm19.2 32.2l-1.9-2.1-1.6 2.1 1.6 1.7zm-38.1-39.8l-1.6-2-3.4 5.8zm20.8 30.5v-2.1q-2.6-2.1-2.9-2.1l-0.6 0.4zm5 9.3l-1.5-2-1.9 3.8 0.6 0.3q0.6 0 2.8-2.1zm-18.9-13.1q-5-4.9-10.3-4.2l-1.6 0.4q0.6 0.3 1.6 1 1.2 0.7 2.5 1.7 1.5 0.7 2.8 1.8 1.3 0.7 2.2 0.7 1.6 0 2.8-1.4zm-9.4 9.3v-2.7h-2.5v2.7zm-9.5-3.8h-1.9l-1.5 3.8zm17.3 26.7l-5.4-3.8q-1.9 0.3-1.9 2.8 0 2.4 1.9 2.7h2.2q1.9 0 3.2-1.7zm45.6 60.6v-2.8h-2.8v2.8zm-12.9-3.8l-5.4-3.8-1.5 3.8h0.3q0.9 0 2.2 1 1.6 1 2.2 1 1.3 0 2.2-2zm-27.4-24.6h1.3q0.3-2.4-5.1-3.8v0.3q0 3.5 3.8 3.5zm11.7 16.9v-1.7h-1.6zm-21.4-16.9v-2.8h-2.5v2.8zm-9.5-14.6q0-2.8-3.1-2.8-3.8 0-5.7 4.2 1.3 1.7 3.1 1.7h3.8q1.9-2.7 1.9-3.1zm37.8 52.3l1.9-1.7q-1-2.1-3.5-2.1h-1.9zm-20.8 0l0.4-0.4q0-1-1.9-3.4l-1.6 2.1q1.9 2 2.8 2zm-4.1 5.9v-2.8h-2.5v2.8zm12.9 17l1.6-1.8q-2.2-2-2.8-2h-0.7zm-31.8-24.6v-2.8h-2.8v2.8zm262.2-230.9l-1.2 1.7q-2.2 11.1-4.4 24.6-2.2 13.5-5.1 29.4-2.5 15.9-5.6 34.3-3.2 18.3-7.3 39.5-2.8 4.5-4.7 10.3-1.6 5.9-2.5 13.5 0.3 9-0.6 15.3-1 5.9-2.6 9.3-0.6 1.1-1.8 1.8-1 0.3-2.2 0.6-1 0-1.9 0.7-0.7 0.4-0.7 1.4 0 3.1 4.8 3.1-0.4 0.4-1 3.2-0.3 2.7-1.2 7.9-1 6.9-6.3 5.9l-3.5 3.5 3.5 3.8q1.8-2.1 2.2-1.8l1.9-0.3-7.3 47.1q-0.6 3.1-2.8 5.5-2.2 2.1-6.3 4.5-3.2 1.4-6.3 1.7-3.2 0.4-6.9 0.4-4.8 0.3-15.2-1-5-1.1-9.1-1.1-3.8-0.3-6.6-0.7l-4.4-4.1-13.9-76.5q1.3-1.4 1.3-2.5 0-0.7-0.6-1.3-0.3-0.7-1.3-1.4-0.6-1.1-1.2-1.8-0.7-1-0.7-1.7l-6.3-47.4q-0.3-0.7-0.9-2.1-0.6-1.4-1.3-2.8-1.5-4.8-2.5-9.7-0.6-5.2-0.6-10.7v-4.8q-0.6-2.1-1.6-3.5-0.9-1.7-2.5-3.1l-12.9-75.8-1.6-10.4q0-5.2 1.3-10.1 8.8-4.1 20.1-3.8 4.7-0.3 9.8 0 5.3 0.4 11.6 1.8l8.2 9.3v3.1q0 6.3 3.5 8.3-0.3 1.1-0.7 2.1 0 0.7 0 1.7 0 1.4 0.4 3.5 0.6 1.7 0.9 3.8 0.6 2.1 0.9 3.8 0.4 1.7 0.4 3.1 0 3.8-1.9 6.3l3.4 3.8 5.1 48.8q0.9 1.4 1.2 3.8 0.7 2.1 0.3 5.5 0 6.6 1.9 9.4h-0.6q0 0-4.4 3.8 0.3 0.3 0.9 1.4 1 0.7 1.9 1.7 1.3 1 2.2 2.1 1 0.7 1.6 0.7 1.3 0 1.9-0.4 0 1.1 0.3 2.1 0.6 1 1.3 2.1 0.9 0.7 1.9 1.7 0.9 0.7 1.5 1.7 1 0.4 1.6 0.4 1 0 1.9 0 3.1 0 7.9-3.1 3.7-2.4 5.3-3.5 1.9-1.4 2.2-1.4-1.2-4.1-5.6-4.1-3.5 0-6.7 2.4 3.2-7.3 5.1-17.3 1.9-10.4 2.8-22.9 0.3-14.8 1.6-24.5 1.2-10.1 3.1-16 0.7-6.5 1.3-12.8 0.6-6.6 1.9-13.1 1.2-7.6 4.1-12.1 3.1-4.9 7.5-7 1.6 0.4 3.2 0.7 1.6 0 3.4 0 1.3 0 3.8 0 2.5-0.3 5.4-0.7 2.8-0.3 5.3-0.3 2.5-0.4 4.1-0.7 12.9 0.3 17.6 10.4zm-28.9 48.8v-2.1q-0.6 0.4-1.6 0-0.6-0.7-1.9-1.7l-1.6 1.7q1 2.1 2.9 2.1zm-1 14.9v-2.8h-2.5v2.8zm-0.9 22.5h-1.6v1.7zm-9.8-7.6l1.3-1.7q-0.6-2.1-2.8-2.1h-1-1.2zm-8.9-5.6q-0.9-2-2.8-2-1.2 0-2.5 2l1.9 1.8 0.3 0.3q0.9 0 3.1-2.1zm10.1 22.5l-1.2-1.7-2.2 1.7 2.2 1.8zm-6 13.1v-2.7h-2.5v2.7zm6.9 13.2v-2.8h-2.2v2.8zm-16.4-13.2v-2h-3.1zm5.3 16.9l-1.9-2.1-1.5 2.1 1.5 1.8zm-50-52.7v-2.7h-2.9v2.7zm-15.7-16.9v-2.8h-2.5v2.8zm20.4 48.8v-2.8h-2.5v2.8zm33.4 33.6q-1.6-1.8-3.8-1.8h-4.7q-2.2 1.1-2.2 3.8 0 4.2 3.8 4.2 0.9 0 1.9-0.7 1.2-1 2.2-2.1 0.9-1 1.5-2.1 1-1 1.3-1.3zm19.5 31.8v-2.8h-2.5v2.8zm-51.9-50.5v-1.8q-1-2-3.5-2-3.8 0-3.5 3.1v0.7zm13.9 16.9v-1.7q-1-2.1-2.9-2.1-1.8 0-2.5 2.1 1.3 1.7 2.9 1.7zm8.1 11.5l-1.2-2.1-2.2 3.8h0.6q0.3 0 2.8-1.7zm10.4 22.1l3.5-3.4q-2.2-2.1-2.8-2.1-2.6 0-2.6 2.7 0 2.5 1.9 2.8zm-45.3-48.5v-2.7h-2.5v2.7zm57.9 63.7v-2.7h-2.5v2.7zm-17.6-18.6v-3.9q-0.7-2-2.9-2-1.5 0-2.5 2 0.3 0 0.6 0.7 0.7 0.7 1.3 1.4 0.6 0.7 1.3 1.4 0.9 0.4 1.2 0.4zm-27.4-25.7v-0.7h-1.9q-2.5-0.7-3.1 1.8 1.9 2 2.5 2h0.6q1.9-2.4 1.9-3.1zm29 36.7v-1.7q-2.2-2.1-2.8-2.1h-0.7zm-39-44.3q0-2.8-2.8-2.8-1.6 0-2.6 2.1l3.8 3.8q1.6-2.4 1.6-3.1zm16.7 20.1q-1.9-4.2-8.2-4.2-6 0-6.9 4.2 3.4 2.1 7.5 2.1 4.4 0 7.6-2.1zm5.3 10q0-2.7-2.2-2.7-3.1 0-3.1 3.1v0.7q2.5 2 2.8 2h0.6q1.9-2.4 1.9-3.1zm10.1 14.2q-0.3-2.1-2.5-2.1-1.9 0-2.5 2.1l1.5 2.1h0.7q0.6 0 2.8-2.1zm5.4 7.6l-1.9-2-1.6 3.8 0.3 0.3q0.9 0 3.2-2.1zm-10.4 1.1v-1.1q-0.7-1-1.3-1.3-0.3-0.7-0.9-0.7-4.8 0-4.8 6.2v1.4q0.4-0.7 1.6-1.1 1.3-0.3 2.2-0.7 1.3-0.6 2.2-1 1-0.7 1-1.7zm-18.6-11.8l-0.3-0.7h-3.2l1.6 3.8q1.9-2.7 1.9-3.1zm6.6 8.7q0 0-0.6-0.7-0.3-0.7-1-1.4-0.6-0.7-1.2-1.1-0.7-0.6-1.3-0.6-2.8 0-2.8 3.1 0 1.7 1.9 2.7h1.5q2.6 0 3.5-2zm-0.9 20.7v-2.7h-2.6v2.7zm12 28.1v-2.8h-2.2v2.8zm-11-14.2v-0.7h-3.5l1.9 3.8q1.6-3.1 1.6-3.1zm17.9 25.6v-2.8h-2.2v2.8zm128.8 5.5h-0.3q0.6 18-19.9 17.7-2.8 0-7.2-0.4-4.4-0.6-10.4-1.7-12.3-2.4-18.6-1.7-1.5-1.4-2.5-2.8-0.6-1.7-0.6-3.8 0-1 0.3-2.4 0.3-1.4 0.6-2.8 0.3-1.4 0.7-2.8 0.3-1.7 0.3-2.4 0-2.7-2.2-5.2 2.2-30.1 3.4-45.3 1.3-15.3 3.2-12.5-1.6-2.1-2.5-14.2-0.7-12.1-1.3-34.6-0.6-22.5-1.3-55.4-0.6-33.2-1.2-77.5 3.1-7.3 9.7-11.1-1.2-0.4 5.1-0.4 6 0 19.8 0 6.6 0.4 11.7 1.4 5.3 1.1 9.7 2.4 1.6 3.5 2.5 7 1 3.4 1.3 7.9-0.3 2.8-1 6.6-0.3 3.5-1.2 8.7-1.6 10-1.6 15.2 0 3.8 0.3 9.3 0.3 5.2 1 12.2 0.6 7.2 0.3 12.8 0 5.5 0.3 9 0 3.4-0.3 8.6 0 5.2-0.6 12.5-0.4 7.3-1 12.5-0.3 4.8-1.6 7.9 1 35 1.9 59.9 1 24.6 1 42.6 0 2.1 0.3 5.2 0.3 3.1 0.6 6.6 0.3 3.1 0.6 6.2 0.7 2.8 0.7 4.8zm-22.4-163q-0.3-1.1-1.9-1.1-2.5 0-6.3 2.8l1.6 2.1q0.3 0.3 0.6 0.3 0.4 0 0.7 0 1.5 0 5.3-4.1zm-10.1 26.6v-0.3q-1.5 0.3-3.7 1.4-1.9 0.7-4.7 2.4 0.6 2.1 3.7 1.7h1.3q0 0 0.3-0.3 0.6-0.7 1.9-1.7 1.2-1.4 1.2-3.2zm-13.8 16.7v-2.1h-3.5zm22.7 28v-1.7h-2.2zm4.7 28.4q-3.1-3.8-4.7-3.8-0.9 0-2.2 2l3.5 3.5 0.6 0.4q0.6 0 2.8-2.1zm-28-26.3v-2.8h-2.8v2.8zm32.4 56.4v-2.8h-2.5v2.8zm153.9 35.3q0 7.6-4.4 11.4-4.4 3.5-12.6 3.5-2.2 0-5.3-0.4-3.2-0.3-7.6-1.3-4.1-1.1-7.5-1.4-3.5-0.7-6 0l-71.8 3.1q-0.9-1.7-2.5-1.7-1 0-2.9 1.3-1.8 1.1-2.8 1.1-0.9 0-4.1-2.8-2.8-3.1-8.8-8.6 1.3-26.7 1.9-46.4 0.9-20.1 0.3-30.8 0.3-5.6 0.6-9.7 0.4-4.5 1.6-7.7-0.6-16.6-0.9-31.8-0.3-15.6-0.7-29.8 0-14.2 0-27.3 0-13.2-0.6-25.3 0-3.5-0.3-8.3 0-5.2-0.6-12.5-0.4-6.9-0.7-12.1 0-5.2 0.3-8.3-0.6-9.3 10.1-15.2 1.6-0.4 3.2-0.4 1.5 0 3.4 0 2.9 0.4 7 0.4 4.4 0 10 0.7 6 0.7 10.1 1 4.4 0 7.2 0 5.4 0 7 6.6 0.3 0.7 0.3 10.7 0 4.5 1.9 7.6-1.6 12.1-2.5 20.8-0.7 8.7-0.7 13.9 0.3 3.8 0.3 7.6 0.4 3.4 0.7 6.5l-2.5 3.9 2.5 102.1q-1.6 2.1-1.6 4.1 0 1.8 0.9 4.5 1 2.8 1 4.2 0 2.8-1.9 4.1 1.9 2.5 1.9 6.6 0 4.2-1.9 6.9 4.7 5.9 9.4 9 4.8 2.8 9.5 2.1l43.1-3.8q2.2 0 4.7 1.1 2.9 1 5.4 2.7 2.5 1.4 4.4 3.5 1.9 2.1 2.5 4.1-1.9 4.2-1.9 10.1 0 1.7 0 4.5 0.3 2.8 0.7 5.9 0.3 2.7 0.6 5.5 0.6 2.8 0.6 4.5zm-48.8-38.1h-2.8v-2.7h2.8zm-44.7-124.7v-2.7h-2.8v2.7zm-7.9 7.6v-2h-1.6zm7 24.5v-2h-1.9zm-7.9 3.8v-3.1h-2.5v3.1zm-9.5-5.9q-0.6-1-2.2-1-1.2 0-2.8 0.6-1.6 0.7-3.5 2.5l1.6 1.7q0.6 0.3 1 0.3 0.6 0 0.6 0 1.6 0 5.3-4.1zm23.3 34.3v-3.2h-2.5v3.2zm-13.8 20.7v-3.1h-2.5v3.1zm-19.9-28.4q1-0.3-0.3-0.3-1.3 0-4.4 0-2.8 0-3.8 2.1l1.9 2.1h1.3q0.6 0 1.9-1.1 1.5-1 3.4-2.8zm67.4 88.7l-1.9-1.8-1.6 1.8 1.6 2zm-32.7-20.7v-1.8h-1.9zm-24.3-26.3l-1.5-2-1.9 3.8 0.6 0.3q0.6 0 2.8-2.1zm18.3 24.6v-2.8h-2.8v2.8zm14.4 20.8v-2.1q0-1.7-2.2-1.7-3.1 0-3.1 3.1l0.3 0.7zm-27.4-15.2q-0.6 0-1.6-0.4-0.6-0.7-1.5-1.4-1-0.7-1.9-1.4-0.7-0.7-1.3-0.7-1.2 0-2.5 2.1l3.5 3.8h1.5q2.9 0 3.8-2zm1.6 32.2v-1.8h-1.6zm240.5-51.6l0.3-0.3q-0.6 9-2.5 17.6-1.9 8.4-6.3 16.3-5 9-10.7 15.3-5.6 5.8-12.6 7.6-0.9 1.4-3.4 3.1-2.2 1.7-5.1 4.1-6.9 5.2-29.6 5.9-6.3-0.3-13.2-1-6.9-1.1-13.8-3.5-8.2-1.7-14.5-4.5-6.3-2.7-11.4-6.6-3.7-3.1-8.5-9.3-4.7-6.6-9.1-15.2-4.1-9.7-6.6-17-2.2-7.3-2.2-13.2 0.3-17.3 6.9-20.4 1.3 0.4 2.2 0.4 1.3 0 2.6 0 1.2 0 3.7 0 2.9-0.4 5.7-0.4 2.8-0.3 5.3-0.3 2.6-0.4 4.1-0.4 14.2 0 20.5 7.6 0.3 10.1 4.4 17.7 4.4 7.3 13.5 14.2 2.6 2.1 4.8 2.1 1.5 0 4.4-1.1 2.8-1.4 4.7-1.4 2.2 0 4.7 2.1 3.8-3.1 3.2-9h1.5q1.9 0 5.1-3.8-3.2-2.8-3.2-6.2 0-1.1 0.3-2.4 0.4-1.4 0.7-2.8 0.3-1.7 0.3-3.1 0.3-1.8 0.3-2.4 0.3-6.3-9.4-16-9.5-9.7-27.4-24.2 0.3-1.4 0.3-2.4 0.3-1.1 0.3-1.8 0-6.5-10.1-8.3-11.9-9.3-19.8-18-7.9-9-12.3-15.6-6.6-10.3-10.1-21.4-3.1-11.1-2.2-23.6-0.3-16.6 4.4-29 4.8-12.8 16.4-22.5 9.8-8 21.7-10.8 12.3-3.1 28.7-2.7 25.8-0.4 42.8 10.3 17.3 10.8 22 33.3 1.3 5.2 3.2 10.7 1.9 5.2 1.9 10.1-0.3 15.9-19.5 15.9-3.2 0-7-0.4-3.4-0.3-7.8-1.7-3.8-0.7-7.3-1.7-3.4-1.1-6.9-2.1l-3.5-14.2 1.6 1.7 3.5-4.1q-7-4.9-13.6-7.6-6.3-3.2-13.2-5.2-2.5 1-5.3 4.1-2.9 2.8-4.8 5.6-1.5-0.4-3.4-1.4-1.9-1.1-4.4-3.5-5.4-4.8-7.6-4.8-2.5 0-4.7 4.1 0.3 0.4 2.5 1.7 2.5 1.4 6.6 3.9 6.9 3.8 6.9 7.2 0 0.7-0.3 1.8 0 1-0.6 2 0.3 4.5 2.8 9.4 2.9 4.8 7.9 9.7 6 6.6 9.4 11.1 3.5 4.5 5.1 6.5l-1.6 2.1 3.2 3.5q0.3-1.8 2.8-1.8h3.8l35.2 33.3q1.3 0.3 4.1 3.4 1.9 2.1 5.4 10.8 1.2 3.4 2.8 5.9 1.9 2.4 4.1 3.8 3.1 8.6 4.7 17.3 1.6 8.3 1 17.6 1.2 3.5 1.2 8.3zm-67.7-186.9v-2.8h-2.5v2.8zm-43.1 27.3h-7.9q0.3 2.1 3.5 2.1 3.1 0 4.4-2.1zm21.4 48.2v-2.8h-2.5v2.8zm26.7 34.9v-2.7h-2.5v2.7zm-15.4-14.5v-2.8h-2.2v2.8zm36.5 40.5v-2.1l-1.9-1.7zm13.2 18.3l1.9 1.8zm-65.1-68.2v-1.8h-1.9zm-15.1-16.6v-1.7l-2.2 3.4zm63.2 72.1q-1.2-2.1-3.7-2.1-3.2 0-4.4 2.1l1.5 1.7h4.1q2.2 0 2.5-1.7zm-77.7-79.3v-2.8h-2.5v2.8zm36.2 42.2h-1.6l-5 5.6zm70.5 90.3v-1.7q-4.8 0-5.1-1.8l-1.9 1.8q1 2.1 2.9 2.1 4.4 0 4.1-0.4zm-27.7-18.3v-2.8h-2.6v2.8zm2.6 18.3v-1.7q-1-2.1-3.8-2.1-2.2 0-3.2 2.1 1 2.1 2.9 2.1 4.4 0 4.1-0.4zm0.6 35v-2.8h-2.5v2.8zm-12.6-5.6l-1.6-1.7-1.6 1.7 1.6 2.1zm-10.1 7.6l1.9-2q-1.2-1.8-3.1-1.8h-0.6-1.3zm-47.5-27.7v-2.7h-2.6v2.7zm10.1 14.6v-2.8h-2.8v2.8zm7.5 11l-1.9-1.7-1.8 1.7 1.8 2.1z"/></svg>